<svg width="110" height="110" viewBox="0 0 110 110" fill="none" xmlns="http://www.w3.org/2000/svg">
<circle opacity="0.05" cx="55" cy="55" r="55" fill="black"/>
<g opacity="0.9">
<mask id="path-2-outside-1_1_392" maskUnits="userSpaceOnUse" x="21" y="30" width="68" height="50" fill="black">
<rect fill="white" x="21" y="30" width="68" height="50"/>
<path d="M72.6174 31C72.1738 31.0065 71.7504 31.1855 71.4362 31.4984L65.8425 37.0805C65.5212 37.4 65.3412 37.8338 65.3412 38.2866C65.3412 38.7393 65.5218 39.1732 65.8431 39.4932L66.1133 39.7622C65.5135 40.3934 64.7343 40.8266 63.8809 41.0038C63.0274 41.181 62.1402 41.0933 61.3378 40.7531C60.2676 40.2986 59.0864 40.1741 57.9451 40.3952C56.803 40.6162 55.7543 41.1727 54.9318 41.9929L54.2756 42.6478C53.5219 41.8003 52.5231 41.207 51.4166 40.9498C49.037 40.5225 46.599 40.5278 44.2212 40.967C44.8276 40.2937 44.8008 39.2642 44.1601 38.6237L38.5639 33.0392C37.897 32.3742 36.8155 32.3736 36.1486 33.0386L22.5002 46.6586C21.8333 47.3241 21.8333 48.4034 22.5002 49.0689L28.0963 54.6535C28.7633 55.319 29.8447 55.319 30.5117 54.6535L30.7528 54.4105C32.1971 55.9935 33.3326 57.8312 34.1022 59.8296C34.9995 61.4624 36.2521 62.8729 37.7681 63.9574C37.2051 64.6271 36.9456 65.5 37.0525 66.3677C37.1594 67.2354 37.622 68.0201 38.3305 68.5344C39.039 69.0482 39.9299 69.2455 40.7898 69.079C40.5606 69.7967 40.5956 70.5725 40.8902 71.2659C41.1841 71.9598 41.7174 72.5258 42.3933 72.8607C43.0697 73.1961 43.8435 73.2785 44.5752 73.0936C44.3478 73.9921 44.5271 74.9444 45.067 75.6983C45.6062 76.4521 46.4501 76.931 47.3754 77.008C48.3007 77.0851 49.2129 76.752 49.8697 76.0977L50.1684 75.8026C50.1565 76.6436 50.4813 77.4537 51.0717 78.0547C51.6614 78.655 52.4673 78.9958 53.31 78.9999C54.1527 79.0047 54.9622 78.6734 55.559 78.079L58.0265 75.6195C58.1209 75.5247 58.2088 75.4245 58.2902 75.319C58.9292 75.7647 59.7101 75.9591 60.484 75.8649C61.2578 75.7706 61.9693 75.3937 62.4819 74.8076C62.9944 74.2209 63.2711 73.4664 63.2598 72.6889L63.6868 73.112C64.4066 73.8315 65.4299 74.1604 66.4353 73.9956C67.4407 73.8303 68.3042 73.1914 68.755 72.2794C69.2057 71.3679 69.1885 70.2953 68.7081 69.3986C69.6458 69.4727 70.5674 69.126 71.2232 68.4528C71.8789 67.7795 72.1995 66.8497 72.0985 65.9168L75.6802 62.3425C77.2439 60.7809 78.1977 58.7126 78.3682 56.5109C78.4697 55.2029 78.6811 53.9056 79.0007 52.6327L79.4912 53.1163C80.1581 53.7818 81.2396 53.7818 81.9065 53.1163L87.5003 47.5342C88.1666 46.8686 88.1666 45.79 87.5003 45.1245L73.8519 31.5044C73.5253 31.1785 73.0798 30.9989 72.6178 31.006L72.6174 31ZM72.6323 31.889C72.8526 31.8872 73.064 31.9737 73.219 32.1296L86.8645 45.7467C87.0177 45.8996 87.1038 46.1071 87.1038 46.3234C87.1038 46.5397 87.0177 46.7471 86.8645 46.8994L81.2738 52.4809C81.1206 52.6338 80.9127 52.7204 80.696 52.7204C80.4792 52.7204 80.2719 52.6344 80.1187 52.4815L66.4673 38.8615C66.1496 38.5438 66.1496 38.0294 66.4673 37.7118L72.0639 32.1297C72.2142 31.9785 72.4185 31.8919 72.6323 31.889ZM37.3441 33.4269C37.5644 33.4234 37.777 33.5093 37.9332 33.6652L43.5269 39.2501C43.8446 39.5684 43.8446 40.0816 43.5269 40.3999L29.8785 54.0199C29.7253 54.1728 29.5175 54.2587 29.3007 54.2587C29.0845 54.2587 28.8767 54.1728 28.7235 54.0199L23.1328 48.4378C22.9796 48.2849 22.8929 48.0775 22.8929 47.8612C22.8929 47.6448 22.9796 47.4374 23.1328 47.2851L36.7812 33.6651C36.9308 33.5157 37.1327 33.4299 37.3441 33.4269ZM66.7395 40.3904L78.2749 51.896C77.8663 53.3811 77.5997 54.9024 77.4797 56.4381C77.3247 58.4275 76.463 60.2962 75.0502 61.7072L71.8226 64.9252C71.6664 64.5892 71.452 64.2834 71.1895 64.0215L57.7649 50.6247C59.6114 50.7379 61.4452 50.2502 62.9898 49.2344C63.1727 49.0916 63.2161 48.8332 63.0884 48.6394C62.9607 48.4456 62.706 48.3816 62.5023 48.493C60.6744 49.6949 58.4182 50.0575 56.3045 49.4892C55.7148 49.3304 55.0853 49.4987 54.653 49.9295L48.4992 56.0706C47.9231 56.6253 47.0964 56.8357 46.3244 56.6241C45.5523 56.4125 44.9495 55.8104 44.7381 55.0394C44.5266 54.269 44.7381 53.444 45.2951 52.8697L55.562 42.6241C56.2586 41.929 57.1471 41.4572 58.1145 41.27C59.0813 41.0827 60.0825 41.1882 60.9894 41.5728C61.9551 41.9811 63.0222 42.0872 64.0491 41.8762C65.0759 41.6647 66.0151 41.146 66.7395 40.3904ZM48.748 41.5431C49.5824 41.5816 50.4138 41.6747 51.2357 41.8216C52.171 42.0439 53.0127 42.5535 53.6421 43.2784L44.6615 52.2403C43.8788 53.0391 43.5789 54.193 43.8729 55.2717C44.1668 56.3497 45.0107 57.1924 46.0916 57.4858C47.1719 57.7792 48.3276 57.4799 49.1288 56.6988L55.2826 50.5578C55.4358 50.4049 55.6436 50.319 55.8604 50.319C56.0766 50.319 56.2844 50.4049 56.4377 50.5578L70.5595 64.6497C71.1177 65.2239 71.3309 66.0495 71.1195 66.8216C70.9087 67.5933 70.3047 68.1966 69.5315 68.4075C68.7583 68.6191 67.9305 68.4075 67.355 67.8504L63.7211 64.2241C63.5454 64.0611 63.2716 64.0653 63.1011 64.2342C62.9313 64.4037 62.9254 64.6763 63.0881 64.8523L67.5232 69.2782C68.0666 69.8554 68.2685 70.675 68.0547 71.4377C67.8409 72.2004 67.2435 72.7966 66.4786 73.0087C65.7143 73.2215 64.8941 73.0194 64.3156 72.4765L57.8714 66.0457C57.695 65.8851 57.4242 65.8911 57.2556 66.0594C57.0869 66.2277 57.081 66.4991 57.2419 66.6745L61.7031 71.1324C62.2406 71.6794 62.4639 72.4599 62.297 73.2073C62.1307 73.9546 61.5968 74.5668 60.8782 74.8352C60.1597 75.1031 59.3538 74.9905 58.7367 74.5359C59.0289 73.7939 59.0277 72.969 58.7349 72.2276C58.4416 71.4862 57.878 70.8828 57.1576 70.5397C56.4366 70.196 55.6124 70.1379 54.8504 70.3767C55.0054 69.6021 54.8634 68.798 54.4525 68.123C54.0415 67.448 53.3924 66.9513 52.6322 66.7315C51.872 66.5116 51.0573 66.5845 50.3482 66.9353C50.4296 66.0689 50.1481 65.2077 49.5714 64.5558C48.9942 63.9033 48.1728 63.5181 47.3016 63.4914C46.4298 63.4642 45.5859 63.7972 44.9694 64.4124L44.1914 65.1888C44.2039 64.3478 43.8785 63.537 43.2887 62.9361C42.699 62.3357 41.8931 61.9955 41.0504 61.9908C40.2076 61.986 39.3976 62.3179 38.8014 62.9118L38.4005 63.3088C36.9615 62.3031 35.7702 60.9839 34.9174 59.4507C34.1044 57.3575 32.9083 55.4332 31.3911 53.7762L43.0565 42.135C44.9148 41.6537 46.8342 41.4546 48.7518 41.5435L48.748 41.5431ZM40.9284 62.8805C41.5407 62.8527 42.1393 63.0743 42.5858 63.4939C43.0324 63.9135 43.2896 64.4955 43.2991 65.1077C43.308 65.7193 43.0687 66.309 42.6351 66.7422L41.7936 67.579C41.2152 68.1183 40.3968 68.3174 39.6343 68.104C38.8723 67.8907 38.2767 67.2969 38.0629 66.5359C37.8497 65.7755 38.0486 64.9588 38.589 64.3811L39.4252 63.5413C39.8267 63.1413 40.3618 62.9054 40.9284 62.8805ZM47.233 64.4185C47.8192 64.4374 48.375 64.6822 48.7842 65.1012C49.1934 65.5208 49.4244 66.0814 49.428 66.6669C49.4315 67.2519 49.2076 67.8154 48.8038 68.2397L45.4051 71.6344C44.8267 72.1731 44.0077 72.3722 43.2458 72.1589C42.4839 71.9455 41.8882 71.3517 41.6744 70.5914C41.4612 69.8304 41.6602 69.0143 42.2 68.4365L45.5987 65.0419C46.0375 64.6247 46.6267 64.3995 47.233 64.4185ZM51.7987 67.5293C52.3854 67.5494 52.9419 67.7971 53.3499 68.2179C53.7584 68.6393 53.9871 69.2017 53.9877 69.7879C53.9889 70.374 53.762 70.937 53.3552 71.3595L51.0937 73.6157L49.242 75.4636C48.6689 76.0361 47.8333 76.2601 47.05 76.0509C46.2672 75.8417 45.6549 75.2319 45.4453 74.4507C45.235 73.6691 45.4583 72.8353 46.0314 72.2627L50.1506 68.158C50.593 67.7349 51.1863 67.5079 51.7987 67.5293ZM55.8245 71.1615C56.4112 71.1805 56.9683 71.4258 57.3775 71.846C57.7867 72.2656 58.0171 72.8274 58.0195 73.4129C58.0224 73.9985 57.798 74.5621 57.3923 74.9858L54.9308 77.4453C54.3571 78.0112 53.5245 78.2299 52.7459 78.0195C51.9668 77.8097 51.3581 77.2023 51.1478 76.4253C50.937 75.6477 51.1567 74.8174 51.7238 74.2444L54.1884 71.7849C54.6285 71.3671 55.2169 71.1419 55.8245 71.1615Z"/>
</mask>
<path d="M72.6174 31C72.1738 31.0065 71.7504 31.1855 71.4362 31.4984L65.8425 37.0805C65.5212 37.4 65.3412 37.8338 65.3412 38.2866C65.3412 38.7393 65.5218 39.1732 65.8431 39.4932L66.1133 39.7622C65.5135 40.3934 64.7343 40.8266 63.8809 41.0038C63.0274 41.181 62.1402 41.0933 61.3378 40.7531C60.2676 40.2986 59.0864 40.1741 57.9451 40.3952C56.803 40.6162 55.7543 41.1727 54.9318 41.9929L54.2756 42.6478C53.5219 41.8003 52.5231 41.207 51.4166 40.9498C49.037 40.5225 46.599 40.5278 44.2212 40.967C44.8276 40.2937 44.8008 39.2642 44.1601 38.6237L38.5639 33.0392C37.897 32.3742 36.8155 32.3736 36.1486 33.0386L22.5002 46.6586C21.8333 47.3241 21.8333 48.4034 22.5002 49.0689L28.0963 54.6535C28.7633 55.319 29.8447 55.319 30.5117 54.6535L30.7528 54.4105C32.1971 55.9935 33.3326 57.8312 34.1022 59.8296C34.9995 61.4624 36.2521 62.8729 37.7681 63.9574C37.2051 64.6271 36.9456 65.5 37.0525 66.3677C37.1594 67.2354 37.622 68.0201 38.3305 68.5344C39.039 69.0482 39.9299 69.2455 40.7898 69.079C40.5606 69.7967 40.5956 70.5725 40.8902 71.2659C41.1841 71.9598 41.7174 72.5258 42.3933 72.8607C43.0697 73.1961 43.8435 73.2785 44.5752 73.0936C44.3478 73.9921 44.5271 74.9444 45.067 75.6983C45.6062 76.4521 46.4501 76.931 47.3754 77.008C48.3007 77.0851 49.2129 76.752 49.8697 76.0977L50.1684 75.8026C50.1565 76.6436 50.4813 77.4537 51.0717 78.0547C51.6614 78.655 52.4673 78.9958 53.31 78.9999C54.1527 79.0047 54.9622 78.6734 55.559 78.079L58.0265 75.6195C58.1209 75.5247 58.2088 75.4245 58.2902 75.319C58.9292 75.7647 59.7101 75.9591 60.484 75.8649C61.2578 75.7706 61.9693 75.3937 62.4819 74.8076C62.9944 74.2209 63.2711 73.4664 63.2598 72.6889L63.6868 73.112C64.4066 73.8315 65.4299 74.1604 66.4353 73.9956C67.4407 73.8303 68.3042 73.1914 68.755 72.2794C69.2057 71.3679 69.1885 70.2953 68.7081 69.3986C69.6458 69.4727 70.5674 69.126 71.2232 68.4528C71.8789 67.7795 72.1995 66.8497 72.0985 65.9168L75.6802 62.3425C77.2439 60.7809 78.1977 58.7126 78.3682 56.5109C78.4697 55.2029 78.6811 53.9056 79.0007 52.6327L79.4912 53.1163C80.1581 53.7818 81.2396 53.7818 81.9065 53.1163L87.5003 47.5342C88.1666 46.8686 88.1666 45.79 87.5003 45.1245L73.8519 31.5044C73.5253 31.1785 73.0798 30.9989 72.6178 31.006L72.6174 31ZM72.6323 31.889C72.8526 31.8872 73.064 31.9737 73.219 32.1296L86.8645 45.7467C87.0177 45.8996 87.1038 46.1071 87.1038 46.3234C87.1038 46.5397 87.0177 46.7471 86.8645 46.8994L81.2738 52.4809C81.1206 52.6338 80.9127 52.7204 80.696 52.7204C80.4792 52.7204 80.2719 52.6344 80.1187 52.4815L66.4673 38.8615C66.1496 38.5438 66.1496 38.0294 66.4673 37.7118L72.0639 32.1297C72.2142 31.9785 72.4185 31.8919 72.6323 31.889ZM37.3441 33.4269C37.5644 33.4234 37.777 33.5093 37.9332 33.6652L43.5269 39.2501C43.8446 39.5684 43.8446 40.0816 43.5269 40.3999L29.8785 54.0199C29.7253 54.1728 29.5175 54.2587 29.3007 54.2587C29.0845 54.2587 28.8767 54.1728 28.7235 54.0199L23.1328 48.4378C22.9796 48.2849 22.8929 48.0775 22.8929 47.8612C22.8929 47.6448 22.9796 47.4374 23.1328 47.2851L36.7812 33.6651C36.9308 33.5157 37.1327 33.4299 37.3441 33.4269ZM66.7395 40.3904L78.2749 51.896C77.8663 53.3811 77.5997 54.9024 77.4797 56.4381C77.3247 58.4275 76.463 60.2962 75.0502 61.7072L71.8226 64.9252C71.6664 64.5892 71.452 64.2834 71.1895 64.0215L57.7649 50.6247C59.6114 50.7379 61.4452 50.2502 62.9898 49.2344C63.1727 49.0916 63.2161 48.8332 63.0884 48.6394C62.9607 48.4456 62.706 48.3816 62.5023 48.493C60.6744 49.6949 58.4182 50.0575 56.3045 49.4892C55.7148 49.3304 55.0853 49.4987 54.653 49.9295L48.4992 56.0706C47.9231 56.6253 47.0964 56.8357 46.3244 56.6241C45.5523 56.4125 44.9495 55.8104 44.7381 55.0394C44.5266 54.269 44.7381 53.444 45.2951 52.8697L55.562 42.6241C56.2586 41.929 57.1471 41.4572 58.1145 41.27C59.0813 41.0827 60.0825 41.1882 60.9894 41.5728C61.9551 41.9811 63.0222 42.0872 64.0491 41.8762C65.0759 41.6647 66.0151 41.146 66.7395 40.3904ZM48.748 41.5431C49.5824 41.5816 50.4138 41.6747 51.2357 41.8216C52.171 42.0439 53.0127 42.5535 53.6421 43.2784L44.6615 52.2403C43.8788 53.0391 43.5789 54.193 43.8729 55.2717C44.1668 56.3497 45.0107 57.1924 46.0916 57.4858C47.1719 57.7792 48.3276 57.4799 49.1288 56.6988L55.2826 50.5578C55.4358 50.4049 55.6436 50.319 55.8604 50.319C56.0766 50.319 56.2844 50.4049 56.4377 50.5578L70.5595 64.6497C71.1177 65.2239 71.3309 66.0495 71.1195 66.8216C70.9087 67.5933 70.3047 68.1966 69.5315 68.4075C68.7583 68.6191 67.9305 68.4075 67.355 67.8504L63.7211 64.2241C63.5454 64.0611 63.2716 64.0653 63.1011 64.2342C62.9313 64.4037 62.9254 64.6763 63.0881 64.8523L67.5232 69.2782C68.0666 69.8554 68.2685 70.675 68.0547 71.4377C67.8409 72.2004 67.2435 72.7966 66.4786 73.0087C65.7143 73.2215 64.8941 73.0194 64.3156 72.4765L57.8714 66.0457C57.695 65.8851 57.4242 65.8911 57.2556 66.0594C57.0869 66.2277 57.081 66.4991 57.2419 66.6745L61.7031 71.1324C62.2406 71.6794 62.4639 72.4599 62.297 73.2073C62.1307 73.9546 61.5968 74.5668 60.8782 74.8352C60.1597 75.1031 59.3538 74.9905 58.7367 74.5359C59.0289 73.7939 59.0277 72.969 58.7349 72.2276C58.4416 71.4862 57.878 70.8828 57.1576 70.5397C56.4366 70.196 55.6124 70.1379 54.8504 70.3767C55.0054 69.6021 54.8634 68.798 54.4525 68.123C54.0415 67.448 53.3924 66.9513 52.6322 66.7315C51.872 66.5116 51.0573 66.5845 50.3482 66.9353C50.4296 66.0689 50.1481 65.2077 49.5714 64.5558C48.9942 63.9033 48.1728 63.5181 47.3016 63.4914C46.4298 63.4642 45.5859 63.7972 44.9694 64.4124L44.1914 65.1888C44.2039 64.3478 43.8785 63.537 43.2887 62.9361C42.699 62.3357 41.8931 61.9955 41.0504 61.9908C40.2076 61.986 39.3976 62.3179 38.8014 62.9118L38.4005 63.3088C36.9615 62.3031 35.7702 60.9839 34.9174 59.4507C34.1044 57.3575 32.9083 55.4332 31.3911 53.7762L43.0565 42.135C44.9148 41.6537 46.8342 41.4546 48.7518 41.5435L48.748 41.5431ZM40.9284 62.8805C41.5407 62.8527 42.1393 63.0743 42.5858 63.4939C43.0324 63.9135 43.2896 64.4955 43.2991 65.1077C43.308 65.7193 43.0687 66.309 42.6351 66.7422L41.7936 67.579C41.2152 68.1183 40.3968 68.3174 39.6343 68.104C38.8723 67.8907 38.2767 67.2969 38.0629 66.5359C37.8497 65.7755 38.0486 64.9588 38.589 64.3811L39.4252 63.5413C39.8267 63.1413 40.3618 62.9054 40.9284 62.8805ZM47.233 64.4185C47.8192 64.4374 48.375 64.6822 48.7842 65.1012C49.1934 65.5208 49.4244 66.0814 49.428 66.6669C49.4315 67.2519 49.2076 67.8154 48.8038 68.2397L45.4051 71.6344C44.8267 72.1731 44.0077 72.3722 43.2458 72.1589C42.4839 71.9455 41.8882 71.3517 41.6744 70.5914C41.4612 69.8304 41.6602 69.0143 42.2 68.4365L45.5987 65.0419C46.0375 64.6247 46.6267 64.3995 47.233 64.4185ZM51.7987 67.5293C52.3854 67.5494 52.9419 67.7971 53.3499 68.2179C53.7584 68.6393 53.9871 69.2017 53.9877 69.7879C53.9889 70.374 53.762 70.937 53.3552 71.3595L51.0937 73.6157L49.242 75.4636C48.6689 76.0361 47.8333 76.2601 47.05 76.0509C46.2672 75.8417 45.6549 75.2319 45.4453 74.4507C45.235 73.6691 45.4583 72.8353 46.0314 72.2627L50.1506 68.158C50.593 67.7349 51.1863 67.5079 51.7987 67.5293ZM55.8245 71.1615C56.4112 71.1805 56.9683 71.4258 57.3775 71.846C57.7867 72.2656 58.0171 72.8274 58.0195 73.4129C58.0224 73.9985 57.798 74.5621 57.3923 74.9858L54.9308 77.4453C54.3571 78.0112 53.5245 78.2299 52.7459 78.0195C51.9668 77.8097 51.3581 77.2023 51.1478 76.4253C50.937 75.6477 51.1567 74.8174 51.7238 74.2444L54.1884 71.7849C54.6285 71.3671 55.2169 71.1419 55.8245 71.1615Z" fill="#B01736"/>
<path d="M72.6174 31C72.1738 31.0065 71.7504 31.1855 71.4362 31.4984L65.8425 37.0805C65.5212 37.4 65.3412 37.8338 65.3412 38.2866C65.3412 38.7393 65.5218 39.1732 65.8431 39.4932L66.1133 39.7622C65.5135 40.3934 64.7343 40.8266 63.8809 41.0038C63.0274 41.181 62.1402 41.0933 61.3378 40.7531C60.2676 40.2986 59.0864 40.1741 57.9451 40.3952C56.803 40.6162 55.7543 41.1727 54.9318 41.9929L54.2756 42.6478C53.5219 41.8003 52.5231 41.207 51.4166 40.9498C49.037 40.5225 46.599 40.5278 44.2212 40.967C44.8276 40.2937 44.8008 39.2642 44.1601 38.6237L38.5639 33.0392C37.897 32.3742 36.8155 32.3736 36.1486 33.0386L22.5002 46.6586C21.8333 47.3241 21.8333 48.4034 22.5002 49.0689L28.0963 54.6535C28.7633 55.319 29.8447 55.319 30.5117 54.6535L30.7528 54.4105C32.1971 55.9935 33.3326 57.8312 34.1022 59.8296C34.9995 61.4624 36.2521 62.8729 37.7681 63.9574C37.2051 64.6271 36.9456 65.5 37.0525 66.3677C37.1594 67.2354 37.622 68.0201 38.3305 68.5344C39.039 69.0482 39.9299 69.2455 40.7898 69.079C40.5606 69.7967 40.5956 70.5725 40.8902 71.2659C41.1841 71.9598 41.7174 72.5258 42.3933 72.8607C43.0697 73.1961 43.8435 73.2785 44.5752 73.0936C44.3478 73.9921 44.5271 74.9444 45.067 75.6983C45.6062 76.4521 46.4501 76.931 47.3754 77.008C48.3007 77.0851 49.2129 76.752 49.8697 76.0977L50.1684 75.8026C50.1565 76.6436 50.4813 77.4537 51.0717 78.0547C51.6614 78.655 52.4673 78.9958 53.31 78.9999C54.1527 79.0047 54.9622 78.6734 55.559 78.079L58.0265 75.6195C58.1209 75.5247 58.2088 75.4245 58.2902 75.319C58.9292 75.7647 59.7101 75.9591 60.484 75.8649C61.2578 75.7706 61.9693 75.3937 62.4819 74.8076C62.9944 74.2209 63.2711 73.4664 63.2598 72.6889L63.6868 73.112C64.4066 73.8315 65.4299 74.1604 66.4353 73.9956C67.4407 73.8303 68.3042 73.1914 68.755 72.2794C69.2057 71.3679 69.1885 70.2953 68.7081 69.3986C69.6458 69.4727 70.5674 69.126 71.2232 68.4528C71.8789 67.7795 72.1995 66.8497 72.0985 65.9168L75.6802 62.3425C77.2439 60.7809 78.1977 58.7126 78.3682 56.5109C78.4697 55.2029 78.6811 53.9056 79.0007 52.6327L79.4912 53.1163C80.1581 53.7818 81.2396 53.7818 81.9065 53.1163L87.5003 47.5342C88.1666 46.8686 88.1666 45.79 87.5003 45.1245L73.8519 31.5044C73.5253 31.1785 73.0798 30.9989 72.6178 31.006L72.6174 31ZM72.6323 31.889C72.8526 31.8872 73.064 31.9737 73.219 32.1296L86.8645 45.7467C87.0177 45.8996 87.1038 46.1071 87.1038 46.3234C87.1038 46.5397 87.0177 46.7471 86.8645 46.8994L81.2738 52.4809C81.1206 52.6338 80.9127 52.7204 80.696 52.7204C80.4792 52.7204 80.2719 52.6344 80.1187 52.4815L66.4673 38.8615C66.1496 38.5438 66.1496 38.0294 66.4673 37.7118L72.0639 32.1297C72.2142 31.9785 72.4185 31.8919 72.6323 31.889ZM37.3441 33.4269C37.5644 33.4234 37.777 33.5093 37.9332 33.6652L43.5269 39.2501C43.8446 39.5684 43.8446 40.0816 43.5269 40.3999L29.8785 54.0199C29.7253 54.1728 29.5175 54.2587 29.3007 54.2587C29.0845 54.2587 28.8767 54.1728 28.7235 54.0199L23.1328 48.4378C22.9796 48.2849 22.8929 48.0775 22.8929 47.8612C22.8929 47.6448 22.9796 47.4374 23.1328 47.2851L36.7812 33.6651C36.9308 33.5157 37.1327 33.4299 37.3441 33.4269ZM66.7395 40.3904L78.2749 51.896C77.8663 53.3811 77.5997 54.9024 77.4797 56.4381C77.3247 58.4275 76.463 60.2962 75.0502 61.7072L71.8226 64.9252C71.6664 64.5892 71.452 64.2834 71.1895 64.0215L57.7649 50.6247C59.6114 50.7379 61.4452 50.2502 62.9898 49.2344C63.1727 49.0916 63.2161 48.8332 63.0884 48.6394C62.9607 48.4456 62.706 48.3816 62.5023 48.493C60.6744 49.6949 58.4182 50.0575 56.3045 49.4892C55.7148 49.3304 55.0853 49.4987 54.653 49.9295L48.4992 56.0706C47.9231 56.6253 47.0964 56.8357 46.3244 56.6241C45.5523 56.4125 44.9495 55.8104 44.7381 55.0394C44.5266 54.269 44.7381 53.444 45.2951 52.8697L55.562 42.6241C56.2586 41.929 57.1471 41.4572 58.1145 41.27C59.0813 41.0827 60.0825 41.1882 60.9894 41.5728C61.9551 41.9811 63.0222 42.0872 64.0491 41.8762C65.0759 41.6647 66.0151 41.146 66.7395 40.3904ZM48.748 41.5431C49.5824 41.5816 50.4138 41.6747 51.2357 41.8216C52.171 42.0439 53.0127 42.5535 53.6421 43.2784L44.6615 52.2403C43.8788 53.0391 43.5789 54.193 43.8729 55.2717C44.1668 56.3497 45.0107 57.1924 46.0916 57.4858C47.1719 57.7792 48.3276 57.4799 49.1288 56.6988L55.2826 50.5578C55.4358 50.4049 55.6436 50.319 55.8604 50.319C56.0766 50.319 56.2844 50.4049 56.4377 50.5578L70.5595 64.6497C71.1177 65.2239 71.3309 66.0495 71.1195 66.8216C70.9087 67.5933 70.3047 68.1966 69.5315 68.4075C68.7583 68.6191 67.9305 68.4075 67.355 67.8504L63.7211 64.2241C63.5454 64.0611 63.2716 64.0653 63.1011 64.2342C62.9313 64.4037 62.9254 64.6763 63.0881 64.8523L67.5232 69.2782C68.0666 69.8554 68.2685 70.675 68.0547 71.4377C67.8409 72.2004 67.2435 72.7966 66.4786 73.0087C65.7143 73.2215 64.8941 73.0194 64.3156 72.4765L57.8714 66.0457C57.695 65.8851 57.4242 65.8911 57.2556 66.0594C57.0869 66.2277 57.081 66.4991 57.2419 66.6745L61.7031 71.1324C62.2406 71.6794 62.4639 72.4599 62.297 73.2073C62.1307 73.9546 61.5968 74.5668 60.8782 74.8352C60.1597 75.1031 59.3538 74.9905 58.7367 74.5359C59.0289 73.7939 59.0277 72.969 58.7349 72.2276C58.4416 71.4862 57.878 70.8828 57.1576 70.5397C56.4366 70.196 55.6124 70.1379 54.8504 70.3767C55.0054 69.6021 54.8634 68.798 54.4525 68.123C54.0415 67.448 53.3924 66.9513 52.6322 66.7315C51.872 66.5116 51.0573 66.5845 50.3482 66.9353C50.4296 66.0689 50.1481 65.2077 49.5714 64.5558C48.9942 63.9033 48.1728 63.5181 47.3016 63.4914C46.4298 63.4642 45.5859 63.7972 44.9694 64.4124L44.1914 65.1888C44.2039 64.3478 43.8785 63.537 43.2887 62.9361C42.699 62.3357 41.8931 61.9955 41.0504 61.9908C40.2076 61.986 39.3976 62.3179 38.8014 62.9118L38.4005 63.3088C36.9615 62.3031 35.7702 60.9839 34.9174 59.4507C34.1044 57.3575 32.9083 55.4332 31.3911 53.7762L43.0565 42.135C44.9148 41.6537 46.8342 41.4546 48.7518 41.5435L48.748 41.5431ZM40.9284 62.8805C41.5407 62.8527 42.1393 63.0743 42.5858 63.4939C43.0324 63.9135 43.2896 64.4955 43.2991 65.1077C43.308 65.7193 43.0687 66.309 42.6351 66.7422L41.7936 67.579C41.2152 68.1183 40.3968 68.3174 39.6343 68.104C38.8723 67.8907 38.2767 67.2969 38.0629 66.5359C37.8497 65.7755 38.0486 64.9588 38.589 64.3811L39.4252 63.5413C39.8267 63.1413 40.3618 62.9054 40.9284 62.8805ZM47.233 64.4185C47.8192 64.4374 48.375 64.6822 48.7842 65.1012C49.1934 65.5208 49.4244 66.0814 49.428 66.6669C49.4315 67.2519 49.2076 67.8154 48.8038 68.2397L45.4051 71.6344C44.8267 72.1731 44.0077 72.3722 43.2458 72.1589C42.4839 71.9455 41.8882 71.3517 41.6744 70.5914C41.4612 69.8304 41.6602 69.0143 42.2 68.4365L45.5987 65.0419C46.0375 64.6247 46.6267 64.3995 47.233 64.4185ZM51.7987 67.5293C52.3854 67.5494 52.9419 67.7971 53.3499 68.2179C53.7584 68.6393 53.9871 69.2017 53.9877 69.7879C53.9889 70.374 53.762 70.937 53.3552 71.3595L51.0937 73.6157L49.242 75.4636C48.6689 76.0361 47.8333 76.2601 47.05 76.0509C46.2672 75.8417 45.6549 75.2319 45.4453 74.4507C45.235 73.6691 45.4583 72.8353 46.0314 72.2627L50.1506 68.158C50.593 67.7349 51.1863 67.5079 51.7987 67.5293ZM55.8245 71.1615C56.4112 71.1805 56.9683 71.4258 57.3775 71.846C57.7867 72.2656 58.0171 72.8274 58.0195 73.4129C58.0224 73.9985 57.798 74.5621 57.3923 74.9858L54.9308 77.4453C54.3571 78.0112 53.5245 78.2299 52.7459 78.0195C51.9668 77.8097 51.3581 77.2023 51.1478 76.4253C50.937 75.6477 51.1567 74.8174 51.7238 74.2444L54.1884 71.7849C54.6285 71.3671 55.2169 71.1419 55.8245 71.1615Z" stroke="#B01736" mask="url(#path-2-outside-1_1_392)"/>
</g>
</svg>
