<svg width="110" height="110" viewBox="0 0 110 110" fill="none" xmlns="http://www.w3.org/2000/svg">
<circle opacity="0.05" cx="55" cy="55" r="55" fill="black"/>
<g opacity="0.9">
<path d="M35.0341 45.3129C35.2802 43.3072 36.9836 41.8 39.0044 41.8H72.0023C74.0695 41.8 75.7961 43.375 75.9855 45.4335L78.5982 73.8281C78.8139 76.172 76.9689 78.1946 74.615 78.1946H35.5207C33.1184 78.1946 31.258 76.0919 31.5505 73.7075L35.0341 45.3129Z" stroke="#B01736" stroke-width="2"/>
<path d="M55 50.6367V69.3566" stroke="#B01736" stroke-width="2" stroke-linecap="round"/>
<path d="M45.1523 59.9971H64.8447" stroke="#B01736" stroke-width="2" stroke-linecap="round"/>
<path d="M64.5984 41.7996V35.5996C64.5984 33.3905 62.8076 31.5996 60.5984 31.5996H49.3984C47.1893 31.5996 45.3984 33.3905 45.3984 35.5996V41.7996" stroke="#B01736" stroke-width="2"/>
</g>
</svg>
