<svg width="110" height="110" viewBox="0 0 110 110" fill="none" xmlns="http://www.w3.org/2000/svg">
<circle opacity="0.05" cx="55" cy="55" r="55" fill="black"/>
<g opacity="0.9">
<path d="M40.6042 44.4009C38.5009 44.4009 36.8047 42.7071 36.8047 40.6465C36.8047 40.2617 36.9723 39.5836 37.3193 38.6693C37.653 37.7902 38.1083 36.8036 38.5855 35.8493C39.3936 34.2333 40.2405 32.7577 40.6043 32.1362C40.968 32.7576 41.815 34.2335 42.6232 35.8496C43.1004 36.8039 43.5556 37.7904 43.8892 38.6695C44.2362 39.5837 44.4038 40.2617 44.4038 40.6465C44.4038 42.7065 42.7075 44.4009 40.6042 44.4009Z" stroke="#B01736" stroke-width="2"/>
<path d="M36.8047 46.3573C36.8047 45.5842 37.4314 44.9575 38.2045 44.9575H43.004C43.7771 44.9575 44.4038 45.5842 44.4038 46.3573V58.4061H36.8047V46.3573Z" stroke="#B01736" stroke-width="2"/>
<path d="M51.2033 46.3573C51.2033 45.5842 51.83 44.9575 52.6031 44.9575H57.4026C58.1757 44.9575 58.8024 45.5842 58.8024 46.3573V58.4061H51.2033V46.3573Z" stroke="#B01736" stroke-width="2"/>
<path d="M58.8024 40.6465V40.6468C58.8029 42.7063 57.1063 44.4009 55.0029 44.4009C52.8995 44.4009 51.2033 42.7071 51.2033 40.6465C51.2033 40.2617 51.3709 39.5836 51.7179 38.6693C52.0516 37.7902 52.5069 36.8036 52.9841 35.8493C53.7922 34.2333 54.6391 32.7577 55.0029 32.1362C55.3666 32.7576 56.2137 34.2335 57.0218 35.8496C57.499 36.8039 57.9542 37.7904 58.2878 38.6695C58.6348 39.5837 58.8024 40.2617 58.8024 40.6465Z" stroke="#B01736" stroke-width="2"/>
<path d="M65.6019 46.3573C65.6019 45.5842 66.2286 44.9575 67.0017 44.9575H71.8012C72.5743 44.9575 73.201 45.5842 73.201 46.3573V58.4061H65.6019V46.3573Z" stroke="#B01736" stroke-width="2"/>
<path d="M69.4015 44.4009C67.2981 44.4009 65.6019 42.7071 65.6019 40.6465C65.6019 40.2617 65.7695 39.5836 66.1166 38.6693C66.4502 37.7902 66.9055 36.8036 67.3827 35.8493C68.1909 34.2333 69.0378 32.7577 69.4015 32.1362C69.7653 32.7576 70.6123 34.2335 71.4204 35.8496C71.8976 36.8039 72.3528 37.7904 72.6865 38.6695C73.0335 39.5837 73.201 40.2617 73.201 40.6465C73.201 42.7065 71.5047 44.4009 69.4015 44.4009Z" stroke="#B01736" stroke-width="2"/>
<path d="M31.7344 67.4871L33.8154 69.1011C34.8291 69.887 36.5975 69.887 37.6111 69.1011L39.6928 67.4871C40.1568 67.1289 40.9635 67.1279 41.4275 67.4871L43.5085 69.1011C44.5566 69.9136 46.2599 69.9122 47.3048 69.1011L49.3859 67.4871C49.8493 67.1289 50.6559 67.1279 51.1205 67.4871L53.2022 69.1011C53.7093 69.4943 54.3834 69.7105 55.1 69.7105C55.8172 69.7105 56.4915 69.4938 56.9992 69.1011L59.0809 67.4871C59.5455 67.1279 60.3522 67.1289 60.8156 67.4871L62.8966 69.1011C63.9447 69.9136 65.648 69.9122 66.6929 69.1011L68.774 67.4871C69.2386 67.1279 70.0453 67.1289 70.5086 67.4871L72.5903 69.1011C73.6358 69.9117 75.3386 69.9132 76.386 69.1011C77.4334 68.289 78.4677 67.4871 78.4677 67.4871" stroke="#B01736" stroke-width="2"/>
<rect x="32.0039" y="58.4749" width="45.9954" height="19.5226" rx="3.79954" stroke="#B01736" stroke-width="2"/>
</g>
</svg>
