<svg width="1190" height="601" viewBox="0 0 1190 601" fill="none" xmlns="http://www.w3.org/2000/svg">
<g opacity="0.1">
<path d="M1049.83 438.948L1043.94 431.791L1039.22 425.827L1035.69 421.056V422.249H1034.51V419.863L1032.15 418.671L1029.79 416.285L1028.62 410.321L1026.26 403.164H1025.08L1022.72 400.779L1021.54 398.393H1022.72L1023.9 399.586V400.779H1025.08L1020.37 394.815L1016.83 390.044V387.658L1013.29 385.272L1012.12 384.08V386.465H1010.94L1009.76 387.658L1012.12 388.851L1015.65 391.236V392.429H1016.83V394.815H1015.65V396.008L1016.83 397.2L1015.65 400.779L1014.47 399.586H1013.29L1010.94 400.779V403.164L1012.12 405.55L1013.29 406.743L1018.01 423.42L1022.72 426.999L1028.62 431.77L1029.79 435.348V440.12L1032.15 442.505L1033.33 444.891L1040.4 466.35V467.543L1045.12 471.121L1047.47 475.892L1048.65 479.471V484.242L1051.01 486.628L1052.19 489.013L1054.54 498.545L1059.26 505.702L1060.44 504.509V502.123L1059.26 496.159L1060.44 491.388L1061.62 492.581L1065.15 491.388L1069.87 493.774L1071.04 496.159L1072.22 497.352L1069.87 491.388L1067.51 486.617L1066.33 487.81L1061.62 485.424L1059.26 483.039L1054.54 479.46L1051.01 473.496L1049.83 466.34V460.375L1048.65 457.99V455.604L1049.83 454.412L1051.01 452.026L1056.9 450.833L1062.79 453.219L1065.15 454.412L1066.33 455.604L1063.97 453.219L1060.44 450.833L1058.08 448.448L1056.9 446.062L1049.83 438.948Z" fill="#B01736"/>
<path fill-rule="evenodd" clip-rule="evenodd" d="M718.879 113.552H721.236L725.951 118.323L724.772 120.709L722.415 121.901L718.879 119.516L717.701 117.13H718.879V113.552ZM868.451 136.194V137.386L866.094 138.579L863.737 137.386L864.916 136.194L867.273 135.001L868.451 136.194Z" fill="#B01736"/>
<path fill-rule="evenodd" clip-rule="evenodd" d="M1132.26 220.221H1129.9V234.523H1131.08V230.945L1132.26 228.56V226.174L1133.44 224.981L1134.62 222.596L1132.26 220.221Z" fill="#B01736"/>
<path fill-rule="evenodd" clip-rule="evenodd" d="M1036.87 63.4866H1035.69L1034.51 67.0649L1039.23 69.4505L1041.58 68.2577L1043.94 65.8721L1042.76 64.6794L1041.58 62.2938H1039.23L1036.87 63.4866Z" fill="#B01736"/>
<path d="M976.804 501.08L975.625 503.466L976.804 505.851L980.34 509.43L977.983 513.008L976.804 514.201V520.165L977.953 525.977V538.482L976.774 540.867L977.953 543.253L976.774 544.446L975.595 546.831L976.774 550.41L974.417 552.795H964.999L961.463 553.988L960.285 558.759L957.928 559.952L956.749 561.145L962.642 573.073L963.82 580.23L964.999 581.422V582.615L963.82 590.954L960.285 592.147L959.106 594.532H960.285L961.463 595.725L963.82 600.496L964.999 598.111V596.918L962.642 594.532H968.535V592.147L969.713 587.376L972.07 583.797L970.892 582.604L972.07 581.412H973.249V584.99L976.785 581.412V580.219L977.963 583.797V586.183H979.142V584.99H980.32L981.499 586.183L982.677 584.99L985.034 586.183L986.213 587.376V584.99L987.392 586.183L989.749 584.99L999.177 575.448L1003.89 567.109L1005.07 565.916V563.53H1006.25V558.759L1007.43 555.181V552.795L1009.78 550.41L1010.96 544.446L1015.68 530.132L1018.03 524.169L1019.21 518.205L1020.39 511.048V505.084L1021.57 500.313L1021.58 497.502L1023.94 486.777L1026.29 478.438V477.246L1025.11 474.86V470.089L1023.94 468.896V465.318L1022.76 461.739L1020.4 456.968V453.39L1014.51 436.701V434.316L1015.69 428.352L1014.51 423.581L1015.69 421.195L1014.51 420.002L1013.33 421.195L1010.97 417.617V414.038H1009.79L1008.61 412.846L1003.9 410.46H1007.44L1008.61 408.074L1007.44 405.689H1005.08L1002.72 404.496L1001.54 403.303H998.008L994.472 400.918V399.725L992.115 398.532H990.936L989.758 397.339H987.4L985.043 399.725L981.508 400.918H980.329L981.508 403.303V412.835L980.329 410.449V405.678L977.972 410.449L972.079 416.413V412.835L974.436 408.064H973.258L972.079 409.257H970.901L968.544 408.064L970.901 405.678V404.485L967.365 408.064L968.544 409.257V412.835H966.186V414.028L963.829 408.064L960.294 402.1L952.054 405.678L946.161 403.293L948.518 399.714L949.697 397.329L952.054 393.75L953.233 390.172L954.411 387.786L955.59 386.594L959.126 380.63L960.304 373.473L962.661 371.087V369.895L961.483 368.702L962.661 366.316V362.738L963.84 361.545L966.197 355.581L969.733 348.424V346.039L970.911 344.846L972.09 342.461V336.497L973.268 331.725L975.625 329.34L976.804 319.808L982.697 311.469H983.875L987.411 307.891L993.304 305.505L999.197 301.927H1000.38L1001.55 300.734H1002.73V303.12L1005.09 304.313L1006.27 301.927L1005.09 298.349L1009.76 298.392L1013.3 297.199H1014.48L1019.19 292.428H1021.55L1025.08 291.235L1023.91 290.042H1022.73V287.657H1023.91V282.885L1030.98 280.5H1034.51V281.693H1036.87V279.307L1040.41 276.921L1045.12 279.307L1047.48 278.114H1048.66V279.307H1047.48L1045.12 281.693L1042.76 282.885L1043.94 286.464H1045.12L1047.48 285.271L1049.83 281.693L1051.01 280.5H1053.37L1055.73 279.307V275.729L1056.9 273.343L1060.44 272.15H1062.8L1063.98 270.958V268.572H1067.51L1066.33 267.379H1067.51L1068.69 266.186L1067.51 263.801L1065.15 262.608L1062.8 263.801L1061.62 264.994V266.186L1060.44 267.379H1059.26V262.608H1058.08L1056.9 261.415V260.222L1058.08 259.03H1056.9V251.873L1059.26 247.102L1060.44 241.138L1059.26 239.945V235.174L1060.44 232.788L1058.08 228.017L1060.44 223.246L1061.62 219.668H1063.98L1065.15 218.475L1069.87 211.318H1073.4L1075.76 212.511L1076.94 208.933V206.547L1079.3 208.933L1080.48 211.318V216.089L1082.83 218.475V219.668L1084.01 220.86L1086.37 218.475L1087.55 220.86L1088.73 224.439L1091.08 212.522L1093.44 199.412L1094.59 197.611V196.418L1095.77 197.611H1098.12V194.033H1094.59L1092.23 189.261V186.876L1091.05 185.683L1089.87 182.105L1093.41 179.719L1094.59 176.141H1100.48L1098.12 178.526L1096.95 183.298L1101.66 190.454V192.84L1102.84 195.225H1105.2L1106.37 198.804V201.189L1108.73 203.575L1107.55 205.961L1105.2 208.346V211.924L1104.02 213.117L1102.84 215.503V219.081L1104.02 220.274L1102.84 227.431V233.395L1101.66 234.587V235.78L1100.48 240.551V245.322L1102.84 247.708V248.901L1101.66 250.094V257.25L1099.3 266.793L1098.12 269.178L1096.95 270.371V273.949L1092.23 276.335L1094.59 277.528L1096.95 281.106V288.263L1095.77 294.227L1098.12 301.383L1101.66 308.54L1118.15 331.193L1139.35 352.652L1142.89 358.616L1147.6 363.387L1151.14 365.773L1152.32 359.809V353.845L1153.49 352.652L1154.67 349.074L1153.49 338.349L1151.14 335.964H1149.96V333.578L1148.78 331.193H1147.6L1146.42 330L1147.6 328.807L1149.96 330L1153.49 321.661L1155.85 320.468H1157.03V319.275L1151.14 314.504L1148.78 307.347V301.383L1152.32 295.42H1153.49L1154.67 296.612L1157.03 291.841V288.263L1149.96 283.492L1146.42 275.153L1147.6 266.814V265.621L1146.42 264.428L1147.6 262.043L1148.78 263.236V266.814H1151.14L1152.32 263.236L1146.42 258.465V257.272L1144.07 259.657L1140.53 256.079L1138.17 252.5V248.922L1137 245.344H1131.08L1129.9 246.537L1131.08 247.729L1128.72 248.922L1126.37 247.729L1122.83 237.005V229.848L1121.65 228.655H1122.83V227.463H1121.65V223.884L1120.47 222.691H1119.3L1118.12 216.728L1120.47 211.956L1121.65 210.764L1120.47 209.571H1124.01L1126.37 210.764L1127.55 207.185L1125.19 205.992V204.8L1127.55 200.029L1128.72 195.257L1129.9 196.45L1134.62 203.607V195.268L1135.8 189.304L1139.33 182.147L1144.05 179.762L1149.94 177.376L1154.65 179.762H1158.19L1157.01 176.183L1154.65 172.605L1155.83 170.219L1157.01 166.641V160.677L1158.19 159.484L1157.01 157.099H1155.83L1157.01 155.906H1158.19L1155.83 153.52H1157.01L1158.19 149.942L1157.01 148.749H1155.83L1158.19 146.364V142.785H1157.01V140.4H1158.19L1159.37 138.014V135.629L1160.53 135.064L1161.71 131.486V126.715L1166.43 112.401H1164.07V111.209L1162.89 110.016H1164.07V108.823L1166.43 111.209L1178.21 104.052L1177.03 102.859V98.0881L1169.96 95.7025V93.317L1166.43 94.5097L1162.89 93.317L1157 89.7386L1149.93 86.1601L1148.75 89.7386L1144.03 90.9314L1140.5 87.3529L1139.32 90.9314V92.1242H1136.96V94.5097L1135.78 93.317L1136.79 92.1242H1132.25L1132.64 93.3595L1133.43 95.7025L1131.07 96.8953L1129.89 98.0881L1131.07 95.7025L1132.25 94.5097V93.317L1131.07 90.9314H1132.25L1139.32 87.3529L1138.14 86.1601V84.9673H1142.85L1147.57 81.389L1149.93 74.2323L1148.75 67.0756L1146.39 59.9189H1142.85L1138.14 58.7261L1136.96 55.1476L1138.14 52.7621H1136.96L1135.78 51.5693L1138.14 50.3765L1139.32 51.5693V46.7982L1141.68 50.3765L1142.85 53.9548H1145.21L1146.39 52.7621H1147.57L1149.93 57.5332L1152.28 55.1476L1154.64 49.1837L1157 45.6054L1159.35 44.4126L1162.89 43.2198L1166.43 45.6054L1168.78 46.7982L1173.5 45.6054L1177.03 43.2198L1179.39 40.8342L1182.93 42.027L1186.46 40.8342V38.4487L1185.28 37.2559V36.0631L1188.82 39.6415L1190 37.2559L1187.64 34.8703H1188.82L1190 33.6775V32.4848H1187.64L1185.28 33.6775L1182.93 31.292V32.4848H1181.75L1182.93 30.0992V25.3279L1180.57 22.9424L1178.21 21.7496H1172.32L1177.03 19.364L1179.39 17.3405L1180.57 14.7207V13.89L1178.21 14.2521L1175.85 13.4214L1178.21 12.5907L1181.75 10.4501L1179.39 8.90588L1178.21 7.71309V0.918457L1177.03 1.28052L1175.85 2.23903L1174.68 2.4733L1173.5 2.59043L1169.96 3.54895L1167.6 4.37967L1161.71 4.49681H1158.18L1155.82 7.4787L1154.64 10.4607L1153.46 11.4192V11.6535L1154.64 12.612V13.5705L1152.28 12.8569L1151.1 11.6642L1149.93 12.5907L1148.75 14.4971L1147.57 15.807L1146.39 16.9998L1147.57 17.234L1148.75 16.4033L1151.1 16.9998L1153.46 17.9583V20.5781H1155.82L1158.18 21.7709H1155.82V24.1565H1154.64L1153.46 22.9637L1152.28 24.1565H1148.75V21.7709L1146.39 20.5781L1141.68 17.1169L1140.5 16.8826H1139.32V19.3853L1138.14 19.0233V18.544L1136.96 16.9891L1134.6 15.7963L1132.25 16.5099L1131.07 17.7027L1134.6 18.299L1133.43 19.3747L1131.07 21.7602L1129.89 19.3747L1128.71 18.0648L1127.53 19.1404L1125.18 20.5675L1124 19.3747L1122.82 19.1404L1119.28 20.5675L1115.75 22.953L1114.57 21.7602H1113.39L1108.68 24.1458L1107.5 22.953L1105.14 21.7602L1101.6 22.953L1098.07 25.3386H1092.18L1091 26.5314L1088.64 27.7242V26.5314H1089.82V25.3386H1088.64L1086.28 26.5314L1085.11 27.7242L1082.75 28.9169H1080.39L1079.21 30.1097L1072.14 32.4954H1070.96V34.881L1069.78 33.6882H1068.61L1063.89 39.6521L1060.36 43.2305H1058L1059.18 44.4233V45.616H1056.82L1054.46 46.8088L1053.28 48.0016L1050.93 49.1944L1047.39 51.5799L1043.86 52.7727L1046.21 55.1583L1047.39 57.5439V61.1223H1049.75L1050.93 59.9294L1056.82 63.5079L1058 69.4718L1056.82 71.8574V74.243H1053.28L1050.93 71.8574L1043.86 74.243L1041.5 71.8574L1035.61 69.4718L1034.43 70.6646V76.6285L1032.07 79.0141H1029.71L1027.36 80.2069L1023.82 83.7852L1020.28 84.978L1017.93 83.7852V84.978L1015.57 87.3636H1014.39L1013.21 89.7491V90.942L1010.86 93.3276L1009.98 95.4895V97.8751H1008.81V96.6823H1007.63V102.646L1006.45 100.261L1004.09 97.8751L1000.56 99.0679H995.841L994.662 95.4895L992.305 90.7184L979.162 87.3212L960.316 99.2383L954.423 106.395L949.709 108.781L940.28 104.009H934.387L929.673 102.817V104.009L928.495 105.202H926.137L924.959 104.009L926.137 101.624L928.495 100.431L926.137 98.0456L922.602 95.66L917.888 96.8528L914.352 98.0456L909.638 107.577L904.923 115.916H903.787V113.531L902.608 112.338L904.965 111.145L906.144 109.952L904.965 108.759V106.374L907.323 105.181L908.501 102.795L906.144 103.988L900.251 107.567L897.894 109.952L896.716 107.567L900.251 103.988H901.43L904.965 101.603L908.501 100.41L895.548 101.603L882.594 106.374H876.701L874.344 107.567L875.523 108.759L877.88 109.952L876.701 113.531L873.165 114.723L870.808 120.687L871.987 121.88L874.344 120.687V123.073L875.523 124.266L876.701 126.651V129.037L879.058 130.229V132.615H876.701V135.001L874.344 132.615H873.165L871.987 133.808H869.63V140.965L864.916 138.579L856.676 137.386L853.14 142.157L848.426 145.736L843.712 144.543L840.176 142.157L838.998 139.772L841.355 138.579L838.998 137.386L837.819 148.111L836.641 161.221L835.462 162.414L833.105 160.028V161.221H830.748L829.569 160.028V158.835H826.034L821.319 151.678H820.141L818.962 150.486L821.319 148.1L820.141 145.714L817.784 144.522L818.962 145.714V146.907L817.784 148.1L815.427 145.714L814.248 143.329L808.355 139.751L805.998 138.558H809.534L814.248 143.329H817.784L820.141 140.943L818.962 137.365L816.605 134.979V130.208L815.427 127.823V126.63L813.069 124.244H810.712L803.641 118.28L798.927 120.666H793.034L789.498 118.28L784.784 117.088V118.28L783.605 119.473L781.248 125.437L782.427 130.208V134.979L780.07 133.787H776.534V134.979H774.177L771.82 136.172L770.641 137.365L767.106 136.172L764.748 134.979H757.688L755.33 133.787V131.401L757.688 129.016L756.509 127.823H747.091L744.734 126.63L743.555 127.823H742.377L740.02 126.63H737.663L735.305 129.016L732.948 130.208L729.413 131.401V134.979L727.056 132.594L728.234 130.208L727.056 126.63L724.698 124.244V127.823L723.52 129.016H720.058L716.522 126.63L715.344 127.823L714.165 131.401L711.808 133.787L712.987 134.979H714.165V138.558L715.344 139.751L714.165 144.522L715.344 149.293L716.522 150.486V154.064L717.701 155.257L720.058 156.45L722.415 158.835L723.594 163.606V168.377L725.951 173.149L727.129 176.727V177.92L717.701 185.076L716.522 188.655V191.04L715.344 192.233L712.987 193.426V198.197L710.629 201.776H708.272L704.737 200.583L701.201 201.776L698.844 204.161H696.508L694.151 202.968V204.161H692.972L691.793 206.547V207.739L692.972 212.511L695.329 216.089V232.777L694.151 245.887L690.615 248.273L688.258 250.659L690.615 253.044V261.383L691.793 263.769V269.732L692.972 272.118L697.686 276.889L696.508 279.275L695.329 280.468L692.972 284.046V287.624L690.615 291.203L692.972 295.974H695.329L697.686 298.359L702.401 299.552H710.64L711.818 301.938L712.997 305.516L711.818 306.709L709.461 310.287L712.997 311.48L716.533 315.058L717.68 323.174L717.711 329.361L720.068 331.747L722.426 335.325L721.247 337.711L718.89 340.096L720.068 346.06L723.604 349.639L721.247 355.603L718.89 362.759V366.338L716.533 368.723V374.687L717.711 379.458H720.068L725.961 378.266L727.14 375.88L730.675 377.073H731.854V375.88H738.925L742.461 372.302V373.494L743.64 375.88L745.997 377.073L744.818 380.651L750.711 374.687L755.425 367.531H757.782L758.961 365.145L760.139 361.567L762.497 360.374H764.854L768.389 356.795H773.104L776.639 357.988L778.996 360.374L781.354 361.567V363.952L782.532 365.145V367.531H794.318L795.496 369.916V372.302L796.675 374.687V378.266L797.853 380.651L799.032 381.844V383.037L800.21 385.422V392.579L802.568 397.35L803.746 396.157H804.925L806.103 400.929L809.492 405.502V409.735H810.671V412.121L811.849 413.314L816.564 415.699L815.385 416.892H814.206V419.278L816.564 421.663H817.742V420.471L820.099 419.278L823.635 418.085L825.992 421.663L827.171 425.242H828.349L830.706 424.049L833.063 430.013L830.706 435.977L831.885 437.17H833.063L836.599 439.555L834.242 441.941V445.519L833.063 447.905L836.599 451.483L838.956 455.061H844.849L849.563 452.676H850.742L851.92 451.483L856.635 453.869L857.813 452.676L861.349 455.061L864.885 456.254V455.061H871.956L873.134 456.254V457.447H874.313L875.492 458.64H876.67V461.025H877.849L881.384 464.604L882.563 469.375L888.456 476.531H889.634V477.724L890.813 478.917V481.303L893.17 483.688L895.527 487.267L896.706 488.459L897.884 492.038H899.063L900.241 493.231V495.616L903.777 501.58L913.205 499.194L914.384 500.387H916.741V501.58H917.92L919.098 500.387L920.277 501.58V500.387H921.455V499.194L926.17 502.773L934.409 503.966L935.562 504.509V509.28L939.098 512.858V515.244L940.277 517.629L942.634 520.015L944.991 521.208L947.348 520.015H948.527L955.598 516.437H957.955L959.134 514.051V511.665L961.491 510.473L963.848 508.087H966.205L968.562 503.316L972.098 500.93L976.804 501.08Z" fill="#B01736"/>
</g>
<g opacity="0.7">
<path d="M4.06181 314.143L1.07335 312.045L0 307.742L3.56726 306.102L4.06181 314.143Z" fill="#B01736"/>
<path d="M83.025 359.085L83.73 357.892L83.3722 356.699H81.8359L80.4258 357.892L80.1944 356.699L80.3101 355.507H79.1316L78.3107 354.314L76.3114 351.928L73.9543 350.736L73.3651 353.121L72.7758 354.314L70.6607 353.121L68.8928 351.928L67.3565 354.314L66.4094 357.892L67.4722 361.471L66.7672 363.856L67.7142 365.049L65.9464 367.435L64.0628 368.627L63.5893 367.435H63L63.1157 372.206L64.9994 374.591L66.5252 378.17H68.1772L69.7136 379.362L69.24 380.555H66.5357L64.5364 381.748L65.0099 382.941H66.3042L65.3571 384.134L63.9471 386.519H66.6515L69.7136 387.712L70.3029 388.905L70.0714 390.097L73.3651 392.483H75.9536L78.195 394.869L79.4893 396.062H80.0786L79.1316 397.254H77.953L80.8994 399.64L81.3729 403.218L83.9615 402.025L85.7294 400.833L86.2029 402.025L87.15 403.218H89.2651L89.8543 399.64L88.0865 398.447H92.0957L92.3272 396.062H91.6222L93.39 394.869L95.0421 396.062L98.3358 393.676L100.451 392.483L99.5038 386.519L96.7994 380.555L95.1473 378.17L94.4423 375.784L95.2631 369.82L93.853 367.435L92.0852 365.049L91.1381 362.663L90.0753 359.085H83.025Z" fill="#B01736"/>
<path d="M133.786 349.554H132.25L130.956 348.361L130.724 349.554H130.493L129.546 348.361H128.009L126.01 349.554L127.189 351.939L127.894 355.518L129.304 356.71L130.251 357.903L128.714 359.096L127.652 361.481L128.009 365.06L129.188 367.445H132.25L134.723 369.831H132.724L130.135 371.024L129.072 381.759L124.831 382.952H120.475L120.706 384.144L121.885 385.337L121.411 386.53L121.054 387.723L122.232 388.916L123.053 390.108L119.044 391.301L117.981 394.879L118.455 396.072H120.812L122.453 398.458V399.651H123.632L123.4 400.843H124.463L125.168 399.651L128.588 402.036L128.704 403.229H128.82L130.114 402.036H130.703L130.472 403.229L131.292 402.036L132.471 400.843L133.176 402.036L133.06 403.229L132.113 404.422L131.64 405.615L134.46 403.229L137.754 400.843L141.173 399.651L141.763 400.843L139.648 391.312H140.353L141.763 393.697H144.12L145.298 385.359V375.827L142.941 373.441L141.058 371.056L139.879 372.248L138.701 371.056L139.763 367.477L141.763 365.092L141.289 361.513L140.111 357.935L142.941 355.55L141.763 353.164L141.058 350.778L137.522 349.586L133.786 349.554ZM86.202 402.004L85.7285 400.812L83.9606 402.004L81.372 403.197H80.3092L81.2563 404.39L83.8449 406.775L81.372 411.547H81.1405L80.667 412.739L76.8998 413.932L73.6062 412.739L74.9005 411.547H70.3125L70.6703 412.739L70.4388 413.932H72.0909L73.9744 416.318L74.5637 418.703L74.7952 419.896L76.0895 421.089L77.3838 423.474L79.8567 422.282H82.4453L83.7397 423.474L84.2132 422.282H88.4539L89.6324 419.896L91.6318 416.318L94.5782 415.125L97.1668 413.932L97.5246 411.547L96.9353 409.161H92.9366L93.0524 407.968L93.4102 406.775H91.8738L90.2217 405.583L90.106 404.39L89.8745 403.197H87.1701L86.202 402.004Z" fill="#B01736"/>
<path d="M76.5592 400.811L74.7913 402.004H73.3812L72.4342 400.811H71.2557L69.9613 402.004L69.2563 400.811L68.3093 399.619L65.7206 400.811L63.0163 402.004L61.9534 400.811H60.8906L62.6585 406.775L62.7743 409.161L66.1942 410.354L70.3191 411.547H74.9071L75.8542 407.968L74.6756 406.775L75.9699 404.39L77.8535 402.004H78.4427L78.8006 403.197H81.3892L80.9157 399.619L77.9693 397.233L76.5592 400.811ZM127.195 351.939L126.017 349.554H122.481V347.168L120.713 345.975L119.892 348.361L118.356 350.746L114 348.361L108.233 350.746L107.528 351.939L109.527 353.132H113.063L111.411 356.71L108.117 359.096L107.654 361.481H101.646L100.699 363.867L99.4043 365.06H98.9308L98.3415 363.867L96.5737 365.06L94.4586 363.867L90.8071 355.528L85.7456 351.95L82.5677 353.143L78.327 354.335L79.1478 355.528H80.3264L80.2106 356.721L80.4421 357.914L81.8522 356.721H83.3885L83.7463 357.914L83.0413 359.106H90.1126L91.1754 362.685L92.1225 365.07L93.8904 367.456L95.3004 369.842L94.4796 375.806L95.1846 378.191L96.8367 380.577L99.5411 386.541L100.488 392.505L101.309 393.697L103.193 394.89L106.728 400.854L109.201 404.432H110.495L111.316 405.625L112.263 404.432H112.968L116.62 402.047L120.503 400.854L121.323 399.661H122.502V398.468L120.86 396.083H118.503L118.03 394.89L119.093 391.312L123.102 390.119L122.281 388.926L121.102 387.733L121.46 386.541L121.934 385.348L120.755 384.155L120.524 382.962H124.88L129.121 381.769L130.184 371.034L132.772 369.842H134.772L132.299 367.456H129.237L128.058 365.07L127.7 361.492L128.763 359.106L130.299 357.914L129.352 356.721L127.942 355.528L127.195 351.939Z" fill="#B01736"/>
<path d="M81.2629 404.379L80.3158 403.186H78.7794L78.4217 401.993H77.8324L75.9488 404.379L74.6545 406.764L75.8331 407.957L74.886 411.535L73.5917 412.728L76.8853 413.921L80.6525 412.728L81.1261 411.535H81.3576L83.8305 406.764L81.2629 404.379ZM55.5871 350.746L54.9978 347.167L51.8199 348.36L47.8107 347.167L45.9271 344.782L44.7486 343.589L43.8015 344.782L44.1593 345.975L44.7486 347.167L46.8637 349.553L48.7472 351.939H49.4522L50.5151 349.553H51.8093L52.6302 353.131L52.2724 356.71H49.5575L46.8531 359.095L47.0846 361.481L47.4424 362.674L46.2638 363.866H44.7275L44.959 362.674L44.4855 361.481H43.5384L42.3598 362.674L41.8863 363.866L43.2964 367.445L45.6535 369.83L48.0106 368.638L49.547 365.059H50.6098L51.5568 363.866L53.0932 361.481L55.6818 360.288L55.324 362.674L54.8505 365.059H56.7341L57.9127 362.674L58.6177 361.481L60.0277 360.288L58.8491 354.324L55.5871 350.746ZM3.5726 306.101L6.66633 301.565L4.26708 295.494L1.93104 294.174L1.66797 292.587L7.0662 292.864L12.717 294.014L16.5157 297.23L15.8317 292.555L18.8307 296.069L19.2096 297.677L22.7347 300.904L24.4289 305.313L23.061 308.902L22.4401 315.686L24.6499 316.293L26.2809 316.059L26.765 318.093L28.9327 318.573L31.8054 322.428L28.3119 322.47L27.0386 324.611L22.1244 320.479L20.9879 317.646L18.2835 317.39L12.717 315.196L8.94977 313.993L4.03561 314.142L3.5726 306.101ZM109.18 404.379L106.707 400.8L103.171 394.836L101.288 393.644L100.467 392.451L98.352 393.644L95.0583 396.029L93.4062 394.836L91.6384 396.029H92.3434L92.1119 398.415H88.1132L89.8811 399.607L89.2918 403.186H89.8811L90.1126 404.379L90.2283 405.571L91.8804 406.764H93.4168L93.059 407.957L92.9432 409.15H96.9524L97.5417 411.535L97.1839 413.921L94.5953 415.114L91.6489 416.306L89.6496 419.885L88.471 422.27H84.2303L83.7568 423.463L82.4624 422.27H79.8528L77.3799 423.463L75.9699 424.656L74.202 427.042L76.5591 433.006L79.6213 437.777L80.4421 446.116L83.0307 453.272H85.8614L88.9235 452.08H92.9327L96.3526 449.694V438.969L97.5312 428.245L104.245 422.281L107.191 421.088L106.718 419.895H105.066L106.013 412.739L104.245 406.775L109.18 404.379Z" fill="#B01736"/>
<path d="M70.3026 388.884L69.7133 387.691L66.6512 386.498H60.6426L56.0547 390.077L59.2325 394.848L60.8846 400.812H61.9475L63.0103 402.005L65.7147 400.812L68.3033 399.619L69.2503 400.812L69.9553 402.005L71.2497 400.812H72.4283L73.3753 402.005H74.7854L76.5532 400.812L77.9633 397.233H79.1418L80.0889 396.041H79.4996L78.2053 394.848L75.9639 392.462H73.3753L70.0816 390.077L70.3026 388.884Z" fill="#B01736"/>
<path d="M65.0163 374.581L63.1327 372.195H61.2491L61.3649 373.388L57.1242 375.774L55.2406 373.388L53.357 369.81L49.3478 372.195L45.4648 374.581L49.5898 382.92L56.0719 390.076L60.6599 386.498H63.9535L65.3636 384.112L66.3106 382.92H65.0163L64.5428 381.727L66.5421 380.534H69.2465L69.72 379.341L68.1837 378.149H66.5316L65.0163 374.581Z" fill="#B01736"/>
<path d="M71.3724 331.671L66.0689 329.286L62.4175 328.093L63.0068 326.9L64.5431 325.707L64.0696 324.515L64.3011 323.322L63.0068 322.129H61.3547V323.322L60.9969 324.515H60.8811L59.8184 323.322L59.2291 322.129L57.577 320.936H56.0406L55.3356 319.744L54.5148 318.551V325.707L54.8726 331.671L54.2833 330.479H53.6941L53.5783 328.093V326.9L52.042 328.093L50.3899 329.286V328.093H50.8634L50.0426 326.9L47.8012 328.093L45.6862 329.286H43.0975L41.5612 330.479H39.6776L36.4997 328.093L34.5004 324.515L34.1426 326.9L34.3741 328.093L32.3748 326.9H30.7227L32.1327 329.286L33.3113 334.057L32.4905 336.443L32.722 338.828L33.5428 340.021H34.9529L35.0686 343.599L34.9529 345.985L37.4257 353.142L38.1307 361.48L38.3623 371.012H42.2452L43.7815 373.398L44.7286 374.591H45.5494L49.3165 372.205L53.3257 369.819L55.2094 373.398L57.0929 375.783L61.3337 373.398L61.2179 372.205H63.1015L62.9857 367.434H63.575L64.0485 368.627L65.9321 367.434L67.7 365.048L66.7529 363.855L67.4579 361.47L66.3952 357.891L67.3422 354.313L68.8785 351.928L70.6464 353.12L72.7615 354.313L73.3507 353.12L73.94 350.735L74.5293 349.542L74.4136 347.156H75.1186L75.7079 345.964H73.7085L71.0042 341.192L71.5934 340L72.0669 338.807L71.5934 337.614L71.3619 336.421H72.1827L73.2455 335.228L72.772 332.843L71.3724 331.671ZM54.9989 347.167L55.5882 350.745L58.8818 354.324L60.0604 360.288L58.6503 361.48L57.9453 362.673L56.7667 365.059H54.8832L55.3566 362.673L55.7144 360.288L53.1258 361.48L51.5895 363.866L50.6424 365.059H49.5796L48.0538 368.637L45.6967 369.83L43.3395 367.444L41.9295 363.866L42.403 362.673L43.5816 361.48H44.5286L45.0022 362.673L44.7706 363.866H46.307L47.4856 362.673L47.1278 361.48L46.8963 359.095L49.6007 356.709H52.305L52.6628 353.131L51.842 349.553H50.5477L49.4849 351.938H48.7798L46.8963 349.553L44.7812 347.167L44.1919 345.974L43.8342 344.781L44.7812 343.589L45.9597 344.781L47.8434 347.167L51.8526 348.36L54.9989 347.167Z" fill="#B01736"/>
<path d="M117.535 304.259H116.598L115.778 305.452L110.716 306.645L105.886 305.452L103.182 303.066L99.4145 306.645L94.4688 305.452L93.648 306.645V309.03H94.5951L95.3001 310.223H90.2386L89.8808 311.416L90.2386 312.609L89.2915 314.994L88.4707 316.187L86.3556 318.573L83.2935 319.765L79.5263 317.38L75.8749 313.801H71.2869L69.1718 312.609L66.2254 314.994L63.0476 317.38L65.0469 318.573L66.1097 319.765L69.5296 320.958L72.1183 322.151L71.8867 323.344H71.1817L70.2346 325.729L69.5296 324.537H68.3511L66.2359 323.344H64.3524L64.1208 324.537L64.5944 325.729L63.058 326.922L62.4688 328.115L66.1202 329.308L71.4237 331.693L72.8338 332.886L73.3073 335.272L72.2445 336.464H71.4237L71.6552 337.657L72.1287 338.85L71.6552 340.043L71.066 341.235L73.7703 346.007H75.7697L75.1804 347.2H74.4754L74.5911 349.585L74.0018 350.778L76.3589 351.971L78.3583 354.356L82.599 353.163L85.7769 351.971L90.8384 355.549L94.4898 363.888L96.6049 365.081L98.3727 363.888L98.962 365.081H99.4355L100.73 363.888L101.677 361.502H107.685L108.148 359.117L111.442 356.731L113.094 353.153H109.559L107.559 351.96L108.264 350.767L107.559 349.574L106.738 348.382H104.855L105.444 347.189V345.996H103.445L104.623 338.839L101.677 332.875L102.266 331.683H103.445L104.855 330.49L106.381 329.297L110.264 330.49L114.504 328.104L114.273 324.526L113.684 322.14L112.978 320.948H112.473L115.767 317.369L118.945 314.984L117.766 309.02L117.535 304.259Z" fill="#B01736"/>
<path d="M146.514 310.224V309.031H142.978L140.148 306.645L139.443 301.874L136.854 300.682L133.792 299.489L132.498 298.296L131.435 295.91H129.909L128.141 297.103L125.31 295.91H122.364L122.248 298.296L122.606 300.682L120.133 303.067L117.545 304.26L117.776 309.031L118.955 314.995L115.777 317.381L112.483 320.959H112.957L113.662 322.152L114.251 324.537L114.482 328.116L110.242 330.501L106.359 329.308L104.822 330.501L103.412 331.694H102.234L101.645 332.887L104.591 338.851L103.412 346.008H105.412V347.2L104.822 348.393H106.706L107.527 349.586L108.232 350.779L113.998 348.393L118.355 350.779L119.881 348.393L120.701 346.008L122.469 347.2V349.586H126.005L128.004 348.393H129.53L130.477 349.586H130.709L130.94 348.393L132.234 349.586H137.538L141.074 350.779L141.779 353.164L142.957 355.55L145.314 354.357L146.493 353.164H150.029V350.779L151.207 347.2L155.921 343.622L161.814 342.429L164.171 340.044V338.851L161.814 334.08L160.636 330.501H158.279L155.921 329.308V326.923L154.743 325.73H153.564L152.386 326.923L151.207 325.73V324.537H150.029L148.85 323.345L151.207 322.152L153.564 318.573L152.386 314.995L151.207 313.802H150.029V311.417H147.671L146.514 310.224Z" fill="#B01736"/>
</g>
<path d="M145.393 195.758L144.204 196.929H143.046L140.584 198.132L137.216 199.368L135.291 204.097L130.734 208.899L132.839 210.071L133.87 210.028L136.112 214.821L139.689 216.056L140.921 221.956L139.731 223.16L138.795 225.535L141.299 229.124H143.057L143.015 230.327L142.994 232.723V233.916L144.214 235.045H143.057L141.226 237.495L141.341 239.88H142.994L145.351 238.687L146.529 237.495L147.729 238.687H148.886L151.307 237.42L158.304 237.495V236.302L160.661 237.495H163.019L165.449 230.285L163.103 227.91L161.914 226.706L160.725 224.331L159.567 223.16L161.914 215.982L165.386 210.082V206.503L164.208 204.118H163.029L158.315 201.732L156.01 204.075L154.779 202.925L147.771 200.497L146.613 198.122L145.393 195.758Z" fill="#F2F2F2"/>
<g opacity="0.6">
<path d="M135.566 249.433H133.683L132.147 250.626H130.263L129.316 251.819L128.842 253.012H126.601L125.075 251.819L123.076 249.433L118.13 251.819L117.425 254.204L116.836 255.397L116.952 256.59L116.594 258.975L115.184 257.783L111.301 258.975L112.006 261.361L114.247 263.747L117.541 264.939L120.371 266.132V267.325H120.256L121.319 268.518H122.729L123.791 270.903L123.434 272.096L126.38 274.482L129.558 278.06L131.799 276.867L133.683 275.674L132.504 268.518L136.629 263.747L141.807 260.168L141.333 257.783L141.691 255.397L138.986 254.204H136.398V251.819L135.566 249.433Z" fill="#B01736"/>
<path d="M185.38 187.451L186.558 186.258L183.023 185.065L181.844 186.258L183.023 187.451H185.38ZM193.63 188.644H192.451L191.273 189.836L187.737 187.451L180.665 186.258H178.308L175.951 187.451L177.13 188.644L174.773 191.029H172.416V193.415L171.237 195.8V201.764L172.416 202.957L168.88 204.15L165.344 208.921V213.692L168.88 217.271L173.594 216.078L179.487 213.692L185.38 216.078L192.451 211.307L200.69 207.728V206.535L201.869 204.15L197.155 198.186V192.222L193.63 188.644ZM134.502 226.781H132.618L132.26 227.974L130.966 229.166H130.019L129.43 227.974L126.599 226.781L123.895 225.588H123.537L123.063 226.781H120.706L118.707 227.974L118.118 229.166L117.297 230.359L118.118 236.323L120.706 241.094L122.001 242.287L123.179 243.48L122.948 245.865L123.063 249.444L125.063 251.829L126.599 253.022H128.84L129.314 251.829L130.261 250.637H132.145L133.681 249.444H135.565L141.331 239.912L141.215 237.527L143.046 235.077H144.204L142.983 233.948V232.755L143.004 230.359L143.046 229.156H141.289L138.785 225.567L137.322 225.609L135.67 226.802L134.502 226.781Z" fill="#B01736"/>
<path d="M160.647 237.505L158.29 236.313V237.505L151.292 237.431L148.872 238.698H147.715L146.515 237.505L145.336 238.698L142.979 239.891H141.327L135.561 249.422L136.382 251.808V254.194H138.97L141.675 255.386L141.317 257.772L141.79 260.157L144.147 261.35H147.683L148.862 263.736L150.04 264.929H152.397L153.576 263.736L159.469 267.314H161.826L164.183 266.122V264.929L165.362 266.122H167.719L166.54 263.736L164.215 263.076L166.54 262.543H168.897L170.076 261.35L172.433 260.157V256.579L173.611 255.386V253.001L171.254 251.808H170.076L171.254 250.615V248.23L166.54 242.266L163.004 237.495H160.647V237.505ZM117.304 230.359L107.875 227.974L107.402 229.166H106.581L103.992 230.359H102.109L101.635 231.552L101.277 233.938L98.4466 235.13L97.1523 237.516L98.6887 238.709L100.688 239.902V243.48L103.75 244.673L105.992 245.865L106.107 248.251L106.339 251.829L108.696 254.215L108.338 255.408V257.793H110.106L110.464 258.986H111.285L115.167 257.793L116.578 258.986L116.935 256.6L116.82 255.408L117.409 254.215L118.114 251.829L123.06 249.444L122.944 245.865L123.175 243.48L121.997 242.287L120.702 241.094L118.114 236.323L117.304 230.359Z" fill="#B01736"/>
<path d="M100.702 241.084V239.891L98.7024 238.698L97.1661 237.505H92.4519L91.6311 238.698L89.516 236.313L87.2746 238.698L86.0961 239.891L83.981 238.698L83.6232 239.891L83.3917 241.084L80.4453 243.469L82.4447 247.048L85.1491 250.626L84.7913 251.819L84.202 253.012H84.7913L85.1491 254.204H84.5597L83.9704 255.397L86.2118 257.783H90.4526L91.5154 260.168L92.8097 261.361L98.3447 263.747L105.416 267.325L106.479 268.518L107.542 270.903L109.194 268.518L110.488 266.132L112.024 267.325H113.792V266.132L114.497 264.939L114.266 263.747L112.024 261.361L111.319 258.975H110.499L110.141 257.783H108.373V255.397L108.731 254.204L106.374 251.819L106.142 248.24L106.026 245.855L103.785 244.662L100.723 243.469L100.702 241.084Z" fill="#B01736"/>
<path d="M98.1142 210.092L96.9356 211.285H92.1057L89.8643 210.092H87.3914L85.3921 206.514L81.8564 205.321L80.7936 206.514L80.4358 208.899L79.7308 210.092H78.91L77.1421 212.478L75.2586 214.863L74.1957 217.249H73.375L74.322 218.442L74.0905 219.635H74.7956L77.7419 220.827L79.9833 219.635L81.0461 220.827L81.7512 223.213L83.9925 224.406L85.8761 225.598L88.7068 229.177L89.0646 232.755L87.5387 235.141L87.3073 238.719L89.5486 236.333L91.6637 238.719L92.4845 237.526H97.1987L98.4931 235.141L101.324 233.948L101.681 231.562L102.155 230.37H104.039L106.627 229.177H107.448L107.922 227.984L105.217 223.213L106.396 222.02L108.279 219.635L107.101 213.671L106.396 208.899L102.271 210.092H98.1142ZM153.58 263.736L152.402 264.929H150.045L148.866 263.736L147.687 261.35H144.152L141.795 260.157L136.617 263.736L132.492 268.507L133.671 275.664L131.787 276.856L129.546 278.049L130.493 279.242L131.672 280.435L131.082 282.82L130.725 284.013L132.84 285.206L135.313 286.399L136.607 288.784L137.785 291.17H139.553L139.322 292.363L140.858 293.556L146.509 291.17L152.402 288.784L154.759 287.591L155.937 286.399V280.435L154.759 276.856L157.116 275.664V273.278L155.937 272.085L157.116 270.892L158.294 268.507L159.473 267.314L153.58 263.736Z" fill="#B01736"/>
<path d="M133.873 210.029L132.842 210.071L130.737 208.9L121.667 211.285L120.488 210.092L119.425 208.9L118.363 210.092H116.363L114.595 206.514L112.123 205.321L111.06 206.514L110.239 207.707H108.355L106.356 208.9L107.061 213.671L108.24 219.635L106.356 222.02L105.177 223.213L107.882 227.984L117.31 230.37L118.131 229.177L118.72 227.984L120.72 226.791H123.077L123.55 225.599H123.908L126.613 226.791L129.443 227.984L130.032 229.177H130.98L132.274 227.984L132.632 226.791H135.694L137.346 225.599L138.809 225.556L139.745 223.181L140.934 221.978L139.703 216.078L136.125 214.842L133.873 210.029ZM105.419 274.46L107.303 273.268L107.535 270.882L106.472 268.496L105.409 267.304L98.3376 263.725L92.8026 261.34L91.5083 260.147L90.4454 257.761H86.2048L83.9634 255.376L79.7227 262.533L81.259 263.725L83.6161 266.111L84.2054 268.496L85.0262 270.882L85.142 272.075L89.0249 273.268L92.792 275.653H92.3185L91.4977 280.424V284.003L93.0341 285.195L94.5599 284.003L95.9699 288.774L98.8006 293.545L99.6214 292.352L100.684 291.159L103.631 285.195H104.809L105.988 284.003L105.756 281.617V278.039H107.408L108.587 275.653H106.935L105.419 274.46Z" fill="#B01736"/>
<path d="M120.371 267.304V266.111L117.541 264.918L114.247 263.725L114.478 264.918L113.773 266.111V267.304H112.006L110.469 266.111L109.175 268.496L107.523 270.882L107.291 273.267L105.408 274.46L106.944 275.653H108.596L107.418 278.039H105.766V281.617L105.997 284.002L104.818 285.195H103.64L100.693 291.159L99.6307 292.352L98.8099 293.545L100.104 300.702L102.219 301.894L103.166 303.087L105.871 305.473L110.701 306.665L115.762 305.473L116.583 304.28H117.53L120.119 303.087L122.592 300.702L122.234 298.316L122.35 295.93H125.296L128.127 297.123L129.894 295.93H131.431L132.494 298.316L133.788 299.509L136.85 300.702L139.439 301.894L141.091 297.123L140.859 293.545L139.323 292.352L139.554 291.159H137.787L136.608 288.774L135.314 286.388L132.841 285.195L130.726 284.002L131.083 282.81L131.673 280.424L130.494 279.231L129.547 278.039L126.369 274.46L123.423 272.075L123.781 270.882L122.718 268.496H121.308L120.245 267.304H120.371ZM133.093 192.222L128.621 191.029L122.381 189.836L117.783 183.872L112.837 177.908L111.185 175.523H108.712L107.176 176.715L104.587 179.101L101.051 182.679H98.8099L98.6942 185.065L98.9257 186.258H99.2835L99.3992 187.451H98.3364L97.1578 188.643L96.095 191.029L95.6215 194.607L96.095 196.993L95.9793 198.186L94.8007 199.378L93.3906 200.571L94.0957 201.764L95.39 202.957L95.7477 206.535L94.5692 207.728L94.8007 210.114L94.3272 211.306H96.9158L98.0944 210.114H102.219L106.344 208.921L108.344 207.728H110.227L111.048 206.535L112.111 205.342L114.584 206.535L116.351 210.114H118.351L119.414 208.921L120.476 210.114L121.655 211.306L130.726 208.921L135.282 204.118L137.208 199.389L135.671 198.196L133.904 195.811L133.43 194.618L133.093 192.222Z" fill="#B01736"/>
</g>
<g opacity="0.4">
<path d="M204.222 225.588L199.508 223.203L197.15 218.432L195.972 219.624L193.615 220.817L185.375 216.046L179.483 213.661L173.59 216.046L174.768 219.624L173.59 224.396H178.304L180.661 229.167L184.197 232.745H185.375V236.323L190.09 238.709H191.268L192.447 239.902L195.982 236.323L200.697 238.709L203.054 237.516L204.232 235.131L206.589 233.938H207.768V232.745L205.411 229.167H201.875L203.054 227.974L204.222 225.588Z" fill="#B01736"/>
<path d="M160.64 119.506L157.105 118.313L152.391 119.506L151.212 124.277L152.391 127.855L157.105 130.241L160.64 127.855L162.998 124.277L160.64 119.506ZM362.027 100.442H356.134L351.42 105.213L352.598 109.984L358.491 111.177H359.67L360.848 109.984H362.027L363.205 108.792V109.984L362.027 111.177H363.205L364.384 109.984V105.213L362.027 100.442ZM416.199 127.855L418.556 129.048V132.626L422.091 135.012L424.448 131.433L422.091 124.277V121.891L420.913 119.506H418.556V121.891H416.199V127.855ZM383.23 126.662L379.695 125.469L374.98 124.277L369.088 125.469L370.266 126.662V129.048H367.909L366.731 127.855V126.662L367.909 125.469L364.373 124.277H359.659L358.481 123.084L351.409 124.277L344.338 123.084L343.159 121.891V123.084H341.981V126.662L340.802 124.277L338.445 123.084L337.267 121.891L332.552 125.469L327.838 130.241L321.945 127.855L317.231 124.277L318.41 120.698L319.588 118.313L317.231 113.542L321.945 111.156L325.481 109.963L331.374 113.542L333.731 111.156V109.963H334.909V102.806L331.374 98.0354L326.66 94.457L325.481 90.8787L324.302 89.6859V99.2175L317.231 105.182L311.338 109.953V117.109L306.624 120.688L304.267 123.073V126.652L308.981 133.808L313.695 143.351L314.874 144.543V145.736H317.231V144.543L319.588 143.351H321.945L324.302 144.543L326.66 146.929H334.899L344.317 148.122L346.674 146.929L347.853 145.736L349.031 146.929H353.745L359.638 151.7L366.71 157.664L402.045 179.124L404.402 181.509L411.474 180.316L419.713 177.931V176.738L420.892 174.352L422.07 175.545H423.249L432.677 170.774L433.856 169.581H436.213L438.486 170.476L440.917 167.196V164.81L439.738 163.617L437.381 160.039L442.095 155.268V152.882L438.56 146.918L433.845 142.147L427.953 137.376L425.595 134.991L423.238 137.376L422.06 136.183H420.881L419.703 137.376V144.533L418.524 151.689L417.346 150.497H416.167L413.81 151.689L411.453 150.497H410.274L409.096 152.882L405.56 154.075L404.381 151.689L405.56 149.304L407.917 148.111H409.096V145.726L407.917 143.34H409.096L400.856 142.147L393.785 143.34L391.428 139.762L384.356 137.376L379.642 138.569V139.762L378.464 140.954L377.285 138.569H374.928L373.749 139.762H372.571L373.749 138.569V136.183L371.392 134.991H369.035L370.214 133.798V132.605H372.571L374.928 133.798L377.285 129.026H378.464L379.642 127.834V126.641L383.23 126.662ZM150.033 140.965V139.772H146.498L144.141 140.965L142.962 138.58L141.31 137.387L139.069 138.58H137.185L131.292 140.965L132.113 145.736L133.291 149.315L132.229 150.507H130.819L130.703 151.7L130.471 152.893L126.936 154.086L126.346 156.471L124.221 158.857L124.452 161.242L125.989 163.628L127.641 164.821L134.239 167.206L140.721 168.399L142.962 170.785H144.141L151.212 168.399L153.569 166.014L157.105 168.399L159.462 171.978H160.64L161.819 173.17L164.176 174.363L165.355 173.17H166.533L168.89 174.363L170.069 176.749H171.247L173.605 177.941V170.785L172.426 169.592H171.247V168.399H170.069V166.014L171.247 162.435L168.89 158.857L167.712 156.471V152.893L165.355 150.507V149.315L164.176 148.122H159.462V143.351L157.105 140.965V139.772L152.391 142.158L150.033 140.965ZM39.2172 105.203L37.9228 106.395H38.0386L39.2172 105.203ZM50.8765 108.781L44.1629 107.588L42.5108 105.203L40.6272 104.01L39.2172 105.203L38.0386 106.395H38.5121L39.8065 109.974L37.1021 108.781L33.5664 107.588L38.5121 117.12L44.1629 125.459L47.4565 130.23H48.5193L49.8137 129.037L53.9386 127.844L52.8758 119.506L52.5181 115.927L52.4023 112.349L51.813 111.156H50.2767L47.6881 113.542L45.573 111.156L44.7522 108.771L50.8765 108.781ZM240.719 53.9555L236.005 47.9915L232.469 56.3305L227.755 62.2944H224.22L220.684 64.68H219.505V65.8727L218.327 67.0655L214.791 68.2583L213.612 71.8367L214.791 73.0294L210.077 77.8006L208.898 82.5717L205.363 83.7645H201.827L200.648 92.1034L199.47 101.635L184.159 104.021L167.67 105.213V107.599L168.859 118.323L167.67 124.287L170.027 127.291L171.363 132.211L173.562 135.672L178.277 135.001H185.348L186.527 136.194H188.884L187.705 133.808V132.616H188.884L193.598 137.387H195.955L197.134 138.58L198.312 143.351L199.491 144.543L206.552 145.736H208.909L214.802 151.7L217.159 149.315L218.337 150.507L220.694 146.929L221.873 143.351V142.158L226.587 137.387L224.23 133.808L223.051 129.037L225.409 126.652L226.587 124.266L228.944 117.109L231.301 119.495L233.659 118.302L236.016 115.917V113.531L237.194 111.145V107.567H234.837V101.603L236.016 100.41L240.73 94.4464L241.908 92.0608L243.087 88.4824H244.266L245.444 89.6752L248.98 86.0969V87.2897H250.158L251.337 80.133L248.98 72.9761H252.515L250.158 68.205L251.337 67.0122H250.158L248.98 65.8194L245.444 67.0122L244.266 63.4339L245.444 59.8555L240.719 53.9555Z" fill="#B01736"/>
<path d="M366.741 157.654L359.67 151.69L353.777 146.919H349.062L347.884 145.726L346.705 146.919L344.348 148.111L334.93 146.919H326.691L319.62 156.461L318.441 160.039H320.798L321.977 161.232L319.62 168.389L320.798 170.774V171.967L318.441 174.353L314.905 170.774H313.727L312.548 171.967L311.37 170.774V169.582H310.191L307.834 170.774L306.655 168.389L304.298 170.774L303.12 169.582V166.003L294.88 160.039L286.641 157.654V162.425L288.998 167.196V173.16L286.641 176.738V179.124L287.82 181.509L284.284 182.702H281.927L278.391 187.473L277.212 192.245L278.391 193.437H280.748L281.927 194.63H284.284V193.437L285.462 191.052H290.177L291.355 189.859H292.534L294.891 194.63L290.177 199.401L284.284 204.172L283.105 207.751L281.927 210.136L274.855 212.522H272.498L270.141 213.715L266.605 219.679V223.257L261.891 224.45L259.534 228.028L261.891 230.414L263.07 232.799V235.185L264.248 238.763L263.07 239.956V242.342L266.605 239.956L268.963 237.57H271.32V236.378L276.034 238.763L279.57 239.956L284.284 238.763H287.82V239.956L290.177 238.763L288.998 235.185L291.355 229.221L298.427 231.607H300.784L303.141 233.992L301.962 236.378L305.498 238.763L307.855 237.57L310.212 241.149L312.569 243.534L314.926 242.342H319.641V243.534H321.998L323.176 242.342H324.355L325.533 243.534L327.891 242.342L331.426 241.149L338.498 248.306L350.273 249.498V248.306L352.63 247.113L353.808 244.727L354.987 241.149H357.344L358.523 238.763L357.344 237.57V236.378L362.058 226.835L371.487 217.293L372.665 210.136L373.844 208.944L376.201 207.751L377.38 206.558H378.558L380.915 205.365C380.915 205.365 382.858 204.541 383.272 205.365C383.482 205.781 383.272 206.558 383.272 206.558L384.451 208.944L391.522 205.365V204.172L395.058 202.98L397.415 201.787H400.951L403.308 202.98L406.844 199.401L410.379 198.209V197.016L412.736 194.63H416.272L420.986 193.437H425.7L426.879 191.052L428.058 189.859L433.529 186.536L438.654 183.895L437.476 180.317L435.118 176.738L436.297 171.967H437.476L438.58 170.487L436.307 169.592H433.95L432.772 170.785L423.343 175.556H422.165L420.986 174.363L419.808 176.749V177.942L411.568 180.327L404.497 181.52L402.14 179.135L366.741 157.654ZM278.412 18.1934V18.7898L276.055 20.5789L272.519 19.1519L270.162 18.3212L268.984 19.2797L266.626 20.5896L265.448 18.6832L264.269 18.5661L261.912 18.204V20.5896L257.198 22.9752L253.662 27.7463V30.1318L252.484 36.0959L251.305 40.867L247.77 42.0598H243.055L235.984 48.0237L245.412 59.9515L244.234 63.5299L245.412 67.1084L248.948 65.9156L250.127 67.1084H251.305L252.484 68.3012V63.5299L253.662 61.1443V56.3732L256.019 61.1443V62.3371H254.841V68.3012H257.198L258.377 74.2651H257.198V75.4578L258.377 76.6506H259.555V82.6145L261.912 86.1929L265.448 90.964L268.984 96.9281L271.341 101.699L283.116 105.278L290.187 104.085L296.08 101.699L297.258 100.506V98.1208L299.616 95.7353L301.973 92.1568L300.794 89.7712L299.616 88.5785L301.973 81.4218H299.616V74.2651L298.437 73.0723V74.2651L297.258 65.9261V52.8162L296.08 50.4306H294.901L296.08 49.2378L294.901 48.045V46.8523H292.544L291.366 43.2739L290.187 40.8883L287.83 39.6954L285.473 40.8883L284.294 39.6954L286.651 38.5026L289.009 36.1171L286.651 34.9243L287.83 33.7315L286.651 32.5387L284.294 31.3459H285.473L286.651 30.1532L285.473 28.9604V27.7676L287.83 30.1532L291.366 31.3459L290.187 27.7676L289.009 22.9965V24.1893H285.473V25.382L284.294 24.1893V22.9965L283.116 20.6109V19.4181L281.937 20.6109V21.8037H279.58L278.402 18.3425L278.412 18.1934ZM153.569 104.01L151.212 105.203L153.569 107.588H155.926L157.105 108.781H155.926L154.747 109.974V111.167H153.569V115.938L154.747 118.324H157.105L160.64 119.516L162.997 124.288L160.64 127.866L157.105 130.251L152.39 127.866L151.212 124.288L152.19 120.315L150.033 118.324L148.855 119.516L145.319 115.938L144.14 117.131H142.962V114.745H141.552L140.731 115.938L138.963 117.131H139.552L138.142 119.516L136.027 118.324L134.028 119.516H131.902L133.081 123.095L134.028 125.48L135.207 127.866L136.269 130.251L135.449 135.023L137.216 138.601H138.984L141.341 137.408L142.993 138.601L144.172 140.987L146.529 139.794H150.065V140.987L152.422 142.179L157.136 139.794V140.987L159.493 143.372V148.143H164.208L165.386 149.336V150.529L167.743 154.107V156.493L168.922 158.878L171.279 162.457H174.815L177.172 163.65L179.529 161.264H181.886L183.064 160.071H181.886V158.878L183.064 157.686V154.107L186.6 151.722L190.136 150.529L192.493 148.143V146.951L193.672 145.758H197.207L199.564 144.565L198.386 143.372L197.207 138.601L196.029 137.408H193.672L188.957 132.637H187.779V133.83L188.957 136.215H186.6L185.422 135.023L167.754 108.803V105.224H159.514L153.569 104.01Z" fill="#B01736"/>
<path d="M217.174 170.763H215.996L213.638 169.57V167.184L212.46 165.991H211.281V161.22L212.46 158.835L214.817 151.678L208.924 145.714H206.567L201.853 144.042L195.96 145.714H193.603L192.424 146.907V148.099L190.067 150.485L186.532 151.678L182.996 154.063V157.642L181.817 158.835V160.027H182.996L181.817 161.22H179.46L177.103 163.606L174.746 162.413H171.21L170.032 165.991V168.377H171.21V169.57H172.389L173.567 170.763V177.919H177.103L178.282 186.269L187.7 187.461L191.235 189.847L192.414 188.654H193.592L197.128 192.233V198.197L201.842 204.161L206.557 202.968V201.775L207.735 200.582L214.806 202.968L217.164 200.582V202.968H218.342L219.521 204.161V207.739L224.235 208.932V210.124L225.414 211.317L227.771 212.51L230.128 217.281L238.367 223.245H239.546L240.724 222.052L243.081 223.245H244.26L246.617 220.86L248.974 222.052L250.153 224.438L252.51 222.052L251.331 219.667L253.688 217.281H250.153L248.974 216.088V213.703L251.331 212.51L253.688 213.703L258.403 210.124L260.76 207.739L259.581 202.968L257.224 201.775V198.197H250.153L246.617 193.426L244.26 189.847L241.903 191.04H238.367V188.654L236.01 187.461H234.831L233.653 185.076V183.883L231.296 181.498H230.117V180.305L227.76 181.498H224.224V179.112L219.51 174.341H218.332V173.148L217.174 170.763ZM134.022 125.468L133.075 123.083L131.897 119.505L129.308 123.083L126.604 125.468H122.952L121.069 127.854L121.89 129.047L122.479 130.24L120.711 133.818L119.059 132.625L119.533 131.432L119.89 130.24H119.185L118.954 131.432H117.775L116.828 130.24L114.713 131.432H112.472V132.625H112.945L112.83 133.818L111.651 137.396L108.947 139.782L106 140.975L106.232 142.168L106.347 143.36L103.401 146.939L99.5181 151.71H99.4023L99.5181 152.903L100.465 154.095L101.644 155.288L101.17 156.481L101.054 157.674H102.117L103.654 160.059L102.244 163.638L101.296 164.83H103.064L104.011 166.023H106.011L108.126 171.987V174.373L108.715 175.566H111.188L112.84 177.951L118.849 173.18L119.554 169.602V167.216L121.679 164.83L121.09 163.638H120.974L122.626 162.445L124.51 161.252L124.278 158.867L126.393 156.481L126.983 154.095L130.518 152.903L130.75 151.71L130.866 150.517H132.276L133.339 149.324L132.16 145.746L131.339 140.975L137.232 138.589L135.464 135.011L136.285 130.24L135.222 127.854L134.022 125.468Z" fill="#B01736"/>
<path d="M398.548 87.3208V84.9353H396.191V87.3208L397.369 88.5136L396.191 93.2848L399.726 89.7064V88.5136L398.548 87.3208ZM425.634 61.1008L422.098 59.908H418.562V62.2936H417.384V64.6792L415.027 63.4864H411.491V65.8719L412.669 67.0647H411.491V68.2575L410.312 69.4503L406.777 71.8359L404.42 74.2214L403.241 73.0286V71.8359L402.062 70.6431L399.705 71.8359L397.348 74.2214L396.17 77.7998V81.3781H398.527V82.5709L400.884 80.1853V81.3781L399.705 83.7637L402.062 86.1494L400.884 90.9205L402.062 92.1133L403.241 94.4989H400.884L399.705 93.3061V94.4989L398.527 95.6916H397.348V98.0772L398.527 100.463H400.884L402.062 102.848V105.234H404.42V104.041H405.598L407.955 108.812L409.134 110.005V107.619L410.312 106.427V108.812L412.669 112.391V110.005L413.848 111.198H416.205L413.848 104.041V98.0772L415.027 92.1133L416.205 87.3422L418.562 82.5709H419.741L423.277 75.4142L424.455 76.607L426.812 75.4142V74.2214L425.634 73.0286H426.812L429.169 74.2214L430.348 73.0286V71.8359H429.169L427.991 70.6431L431.526 71.8359V69.4503H433.884L432.705 65.8719L430.348 63.4864V62.2936L429.169 61.1008H425.634ZM452.719 34.8808L450.362 37.2664V38.4591H451.541V39.6519L452.719 40.8447H450.362L448.005 42.0375H449.184L450.362 43.2303V44.4231L451.541 45.6158L449.184 44.4231L445.648 43.2303L444.47 44.4231L445.648 46.8086H440.934L442.112 48.0014V49.1942H440.934L439.755 48.0014V50.387L440.934 52.7725L437.398 49.1942L435.041 50.387V52.7725V51.5797L432.684 50.387L430.327 51.5797L429.148 52.7725L427.97 51.5797L430.327 55.1581L435.041 56.3509V57.5437H427.97L425.613 58.7364V59.9292H429.148L431.505 62.3149L432.684 64.7005L433.863 63.5077V67.086L436.22 68.2788L437.398 67.086V68.2788L438.577 67.086L440.934 65.8933L439.755 63.5077V61.1221L440.934 64.7005H443.291L444.47 63.5077L443.291 61.1221L442.112 59.9292V58.7364L444.47 59.9292L445.648 62.3149V63.5077L448.005 58.7364L446.827 57.5437V56.3509H448.005V55.1581H449.184V61.1221L451.541 58.7364L453.898 57.5437L456.255 53.9653L455.077 52.7725V51.5797H456.255V53.9653L458.612 55.1581L459.791 53.9653L460.969 51.5797L462.148 55.1581L463.327 53.9653V51.5797H464.505V53.9653L466.862 52.7725V51.5797L468.041 52.7725L469.219 51.5797V50.387L468.041 49.1942H470.398L472.755 48.0014L476.291 46.8086V48.0014L477.469 46.8086H478.648L482.183 45.6158H502.208L513.984 44.4231L517.519 42.0375L519.876 38.4591L522.233 36.0736L521.055 32.4952L515.162 30.1095L508.091 32.4952V33.688L506.912 34.8808H505.734V33.688H490.423L486.887 30.1095L484.53 28.9167L483.352 31.3024L479.816 32.4952H480.994V31.3024H478.637L476.28 32.4952L473.923 31.3024H470.387L468.03 32.4952H465.673V33.688H462.137V36.0736L460.959 37.2664L458.602 34.8808L456.245 37.2664L453.888 38.4591V37.2664L452.719 34.8808ZM294.908 112.359H293.73L292.551 113.552H289.015L285.48 114.744L283.123 113.552L281.944 112.359L278.408 113.552H273.694L268.98 117.13L266.623 126.672H265.444L263.087 124.287V125.479H261.909L259.551 124.287L258.373 120.708L256.016 117.13L253.659 115.937L252.48 117.13V115.937L253.659 114.744H256.016L254.837 108.78L251.301 104.009L246.587 106.395L245.409 115.926H246.587L248.944 117.119L246.587 120.698L243.052 124.276L241.873 123.083H240.694V124.276L238.337 120.698L235.98 115.926L233.623 118.312L231.266 119.505L228.909 117.119L226.552 124.276L225.373 126.662L223.016 129.047L224.195 133.818L226.552 137.397L221.837 142.168V143.361L220.659 146.939L218.302 150.517L217.123 149.325L214.766 151.71L212.409 158.867L211.23 161.252V166.024H212.409L213.588 167.216V169.602L215.945 170.795H217.123L218.302 173.18V174.373H219.48L224.195 179.144V181.53H227.73L230.087 180.337V181.53H231.266L233.623 183.915V185.108L234.802 187.494H235.98L238.337 188.686V191.072H241.873L244.23 189.879L246.587 193.458L250.123 198.229H257.194V201.807L259.551 203L260.73 207.771L266.623 208.964L267.801 211.349L270.158 213.735L272.516 212.542H274.873L281.944 210.157L283.123 207.771L284.301 204.193L290.194 199.422L294.908 194.65L292.551 189.879H291.373L290.194 191.072H285.48L284.301 193.458V194.65H281.944L280.765 193.458H278.408L277.23 192.265L278.408 187.494L281.944 182.723H284.301L287.837 181.53L286.658 179.144V176.759L289.015 173.18V167.216L286.658 162.445V157.674L294.898 160.06L303.137 166.024V169.602L304.316 170.795L306.673 168.409L307.851 170.795L310.208 169.602H311.387V170.795L312.566 171.988L313.744 170.795H314.923L318.458 174.373L320.815 171.988V170.795L319.637 168.409L321.994 161.252L320.815 160.06H318.458L319.637 156.481L326.708 146.939L324.351 144.553L321.994 143.361H319.637L317.28 144.553V145.746H314.923V144.553L313.744 143.361L309.03 133.818L304.316 126.662V123.083L298.423 127.854L299.601 125.469L297.244 123.083L299.601 121.89L294.908 112.359Z" fill="#B01736"/>
<path d="M219.534 204.139L218.355 202.946H217.176V200.56L214.819 202.946L207.748 200.56L206.569 201.753V202.946L201.855 204.139L200.677 206.524V207.717L192.437 211.295L185.366 216.067L193.605 220.838L195.962 219.645L197.141 218.452L199.498 223.223L204.212 225.609L203.034 227.995L201.855 229.187H205.391L207.748 232.766L212.462 235.151H217.176L220.712 231.573L224.248 235.151V237.537H226.605L231.319 238.73L233.676 237.537L237.212 235.151H238.391L240.748 236.344V235.151H245.462L247.819 233.959V230.38L248.998 226.802L250.176 224.416L248.998 222.031L246.64 220.838L244.283 223.223H243.105L240.748 222.031L239.569 223.223H238.391L230.151 217.26L227.794 212.488L225.437 211.295L224.258 210.103V208.91L219.544 207.717L219.534 204.139ZM177.484 224.395H173.601L174.78 219.624L173.601 216.045L168.887 217.238L165.351 213.66V210.082L161.879 215.981L159.532 223.159L160.69 224.331L161.879 226.706L165.425 230.295L162.994 237.505L166.53 242.276L171.244 248.24L175.958 247.047L179.494 244.662L183.03 243.469H188.923V242.276L190.101 241.083V238.698L185.387 236.312V232.734H184.208L180.673 229.155L178.316 224.384H177.484V224.395Z" fill="#B01736"/>
<path d="M157.115 168.377L153.58 165.991L151.222 168.377L144.151 170.763H142.973L141.794 169.57L140.731 168.377L134.249 167.184L127.651 164.799L125.999 163.606L124.463 161.22L122.579 162.413L120.927 163.606H121.043L121.632 164.799L119.507 167.184V169.57L118.802 173.148L112.793 177.919L117.739 183.883L122.327 189.847L128.567 191.04L133.039 192.233L133.397 194.618L133.87 195.811L135.638 198.197L137.174 199.389L140.468 198.197L143.004 196.951H144.162L145.351 195.779L147.697 200.54L154.706 202.968L155.937 204.118L158.241 201.775L162.955 204.161H164.134L165.313 206.546V208.932L168.848 204.161L172.384 202.968L171.205 201.775V195.811L172.384 193.426V191.04H174.741L177.098 188.654L175.92 187.462L178.277 186.269H180.634L181.812 179.112L177.098 177.919H173.562L171.205 176.726H170.027L168.848 174.341L166.491 173.148H165.313L164.134 174.341L161.777 173.148L160.598 171.955H159.42L157.115 168.377Z" fill="#B01736"/>
<path d="M266.647 208.9L260.754 207.707L258.397 210.093L253.682 213.671L251.325 212.478L248.968 213.671V216.057L250.147 217.249H253.682L251.325 219.635L252.504 222.021L250.147 224.406L248.968 226.792L247.79 230.37V233.948L245.433 235.141H240.718V236.334L238.361 235.141H237.183L233.647 237.527L231.29 238.72L238.361 248.262L237.183 249.455L232.468 251.84L227.754 249.455L226.576 250.648L225.397 253.033L223.04 255.419L225.397 257.804L226.576 260.19H230.111L232.468 262.575L233.647 261.383H234.825L236.004 262.575L238.361 263.768V264.961L239.54 263.768H241.897V264.961L240.718 267.346L241.897 268.539H243.075V273.311L244.254 274.503L241.897 276.889L245.433 278.082L244.254 281.66V284.046H245.433V285.238H244.254L245.433 288.817L247.79 290.009L248.968 286.431L250.147 281.66H252.504L253.682 280.467L254.861 275.696L257.218 272.118H259.575L260.754 273.311H263.111L265.468 272.118L267.825 264.961L272.539 262.575L274.897 264.961L277.254 266.154H279.611L280.789 267.346V268.539L281.968 269.732L284.325 270.925L285.504 268.539L287.861 267.346L289.039 263.768L290.218 262.575L287.861 260.19V256.611L293.753 253.033L297.289 248.262L292.575 244.684L287.861 239.912V238.72H284.325L279.611 239.912L276.075 238.72L271.361 236.334V237.527H269.004L266.647 239.912L263.111 242.298V239.912L264.289 238.72L263.111 235.141V232.756L261.932 230.37L259.575 227.985L261.891 224.45L266.605 223.257L266.647 219.635L270.182 213.671L267.825 211.286L267.057 209.72L266.647 208.9Z" fill="#B01736"/>
</g>
<g opacity="0.5">
<path d="M211.284 292.342L210.106 289.956L205.391 288.764V286.378L201.856 283.992L199.499 280.414L194.784 287.571L192.427 286.378H187.713L188.892 291.149L187.713 295.92L188.892 298.306V300.691L185.356 305.463L181.82 307.848L185.356 312.619L192.427 313.812L193.606 315.005V316.198L195.963 312.619L198.32 306.655H201.856L204.213 305.463H205.391L207.749 306.655H210.106L212.463 309.041L215.999 311.427L217.177 310.234H219.534L221.891 306.655L223.07 304.27L220.713 300.691V297.113L219.534 294.728H213.641L211.284 292.342ZM284.302 270.882L281.945 269.69L280.767 268.497V267.304L279.588 266.111H277.231L274.874 264.919L272.517 262.533L267.803 264.919L265.445 272.075L263.088 273.268H260.731L259.553 272.075H257.195L254.838 275.654L253.66 280.425L252.481 281.617H250.124L248.946 286.389L247.767 289.967L248.946 291.16H247.767L245.41 292.353H246.588L250.124 295.931H253.66V297.124H254.838L256.017 298.317L258.374 297.124V295.931L257.195 294.738L259.553 293.545L261.91 294.738H260.731V299.509L261.91 298.317L264.267 299.509L260.731 301.895H257.195L258.374 304.281H259.553L261.91 306.666L263.088 309.052L265.445 310.244L267.803 309.052L274.874 306.666L273.695 304.281L272.517 300.702H271.338L270.16 301.895V295.931L271.338 294.738H272.517L273.695 293.545V292.353L274.874 293.545L276.052 292.353L280.767 281.628L284.302 270.882Z" fill="#B01736"/>
<path d="M197.154 270.882L193.618 272.075L191.261 273.268H190.082V272.075L185.368 274.461L183.011 269.69L180.654 261.351L178.297 260.158H175.94L172.404 256.58V260.158L170.047 261.351L168.868 262.544H166.511L164.186 263.076L166.511 263.736L167.69 266.122H165.333L164.154 264.929V266.122L161.797 267.315L162.975 270.893L166.511 273.279L168.868 270.893L174.761 282.821H177.118L179.475 280.435L183.011 284.014L187.725 286.399H192.439L194.797 287.592L199.511 280.435L200.689 275.664H199.511V274.471H198.332L197.154 273.279L198.332 272.086L197.154 270.882ZM283.136 310.223L281.957 309.03V307.838H278.422L274.886 306.645L267.815 309.03L265.458 310.223L263.1 309.03L258.386 311.416L253.672 312.609L252.493 311.416V312.609L251.315 313.801L252.493 314.994V317.38L251.315 319.765L250.136 320.958H247.779V322.151L244.243 329.308L243.065 332.886V340.043L245.422 342.428V343.621L246.601 344.814H247.779L246.601 348.392V350.778L247.779 353.164V354.356H245.422L247.779 361.513H248.958L251.315 359.127L254.85 360.32L252.493 363.899L250.136 366.284L252.493 368.67L250.136 374.634H251.315L252.493 377.019L253.672 378.212H258.386L260.743 379.405L261.922 380.598L266.636 381.79L268.993 377.019H271.35L272.529 374.634V373.441H273.707V371.055L277.243 367.477L284.314 355.549H286.672L289.029 354.356H290.207L292.564 356.742L293.743 354.356L297.279 350.778L299.636 347.2L293.743 346.007L286.672 347.2L285.493 346.007V344.814H280.779V343.621L278.422 335.282V334.09H279.6V332.897L280.779 331.704L284.314 330.511L287.85 332.897L286.672 335.282V337.668L289.029 336.475L290.207 337.668V340.053H291.386L292.564 338.861L293.743 336.475L296.1 337.668H297.279L298.457 336.475H303.171L300.814 334.09L303.171 329.318V325.74H301.993L298.457 323.354L293.743 320.969L292.564 319.776H291.386V316.198H286.672V315.005L285.493 311.427H284.314L283.136 310.223Z" fill="#B01736"/>
<path d="M179.478 280.425L177.121 282.811H174.764L168.871 270.883L166.514 273.268L162.978 270.883L161.8 267.304H159.442L158.264 268.497L157.085 270.883L155.907 272.076L157.085 273.268V275.654L154.728 276.847L155.907 280.425V286.389L154.728 287.582L152.371 288.775L154.728 292.353L158.264 293.546L159.442 295.931L160.621 297.124H162.978L165.335 299.51V300.703L168.871 303.088L171.228 304.281H172.407V306.666L175.942 305.474H178.299L180.656 306.666L181.835 307.859L185.371 305.474L188.906 300.703V298.317L187.728 295.931L188.906 291.16L187.728 286.389L183.014 284.003L179.478 280.425ZM225.41 307.838L223.053 304.26L221.875 306.645L219.517 310.224H217.16L215.982 311.416L212.446 309.031L210.089 306.645H207.732L205.375 305.452H204.196L201.839 306.645H198.303L195.946 312.609L193.589 316.188V317.38L194.768 319.766V322.151L195.946 323.344L198.303 324.537V328.115H199.482V331.694L200.66 332.887L201.839 337.658L203.018 341.236L212.436 340.043L215.971 336.465L220.685 334.079L221.864 332.887H224.221L226.578 330.501L228.935 326.923L233.65 324.537L236.007 319.766L239.542 318.573L237.185 316.188H236.007V312.609L232.471 309.031H230.114L227.757 310.224L226.578 309.031L225.41 307.838Z" fill="#B01736"/>
<path d="M241.906 276.846L239.549 278.039L236.014 275.653H231.299V276.846H227.764L225.407 278.039H219.514V279.231L213.621 280.424V281.617L214.8 282.81L213.621 286.388H208.907L207.728 285.195H206.55L205.371 286.388V288.774L210.085 289.967L211.264 292.352L213.621 294.738H219.514L220.692 297.123V300.702L225.407 307.858L227.764 310.244L230.121 309.051H232.478L236.014 312.63V316.208H237.192L239.549 318.593L241.906 322.172H243.085V323.365L241.906 324.557V326.943L244.264 329.329L247.799 322.172V320.979H250.156L251.335 319.786L252.514 317.401V315.015L251.335 313.822L252.514 312.63V311.437L253.692 312.63L258.406 311.437L263.121 309.051L261.942 306.666L259.585 304.28H258.406L257.228 301.894H260.763L264.299 299.509L261.942 298.316L260.763 299.509V294.738H261.942L259.585 293.545L257.228 294.738L258.406 295.931V297.123L256.049 298.316L254.871 297.123H253.692V295.931H250.156L246.621 292.352H245.442L247.799 291.159H248.978L247.799 289.967L245.442 288.774L244.264 285.195H245.442V284.003H244.264V281.617L245.442 278.039L241.906 276.846Z" fill="#B01736"/>
<path d="M238.364 264.93V263.737L236.006 262.544L234.828 261.351H233.649L232.471 262.544L230.124 260.169H226.589L225.41 257.783L223.053 255.398L219.517 253.012L215.982 251.82L213.624 254.205L212.446 253.012H211.267L210.089 255.398L211.267 257.783H210.089L208.91 260.169L210.089 261.362L208.91 263.747H212.446L213.624 264.94L219.517 266.133L220.696 269.711V270.904L221.874 272.097V274.483L223.053 278.061H225.41L227.767 276.868H231.303V275.675H236.017L239.553 278.061L241.91 276.868L244.267 274.483L243.088 273.29V268.519H241.899L240.721 267.326L241.899 264.94V263.747H239.542L238.364 264.93Z" fill="#B01736"/>
<path d="M213.631 264.93L212.452 263.737H208.917L207.738 264.93L205.381 266.123V269.701L206.56 272.086H203.024L200.667 273.279V274.472H199.488V275.665H200.667L199.488 280.436L201.845 284.014L205.381 286.4L206.56 285.207H207.738L208.917 286.4H213.631L214.81 282.821L213.631 281.629V280.436L219.524 279.243V278.05H223.059L221.881 274.472V272.086L220.702 270.894V269.701L219.524 266.123L213.631 264.93Z" fill="#B01736"/>
<path d="M219.527 232.745L217.17 235.131H212.455L207.741 232.745V233.938H206.563L204.206 235.131L203.027 237.516L200.67 238.709L195.956 236.323L192.42 239.902L191.241 238.709H190.063V241.095L188.884 242.287V243.48H182.991L179.456 244.673L175.92 247.058L171.206 248.251V250.637L170.027 251.83H171.206L173.563 253.022V255.408L172.384 256.601L175.92 260.179H178.277L180.634 261.372L182.991 269.711L185.349 274.482L190.063 272.096V273.289H191.241L193.599 272.096L197.134 270.904L198.313 272.096L197.134 273.289L198.313 274.482H200.67V273.289L203.027 272.096H206.563L205.384 269.711V266.132L207.741 264.94L208.92 263.747L210.098 261.361L208.92 260.168L210.098 257.783H211.277L210.098 255.397L211.277 253.012H212.455L213.634 254.205L215.991 251.819L219.527 253.012L223.063 255.397L225.42 253.012L226.598 250.626L227.777 249.433L232.491 251.819L237.205 249.433L238.384 248.241L231.312 238.698L226.598 237.506H224.241V235.12L220.705 231.542L219.527 232.745ZM246.613 348.36L247.791 344.782H246.613L245.434 343.589V342.396L243.077 340.011V332.854L243.74 330.852L244.256 329.276L241.898 326.89V324.505L243.077 323.312V322.119H241.898L239.541 318.541L236.006 319.733L233.649 324.505L228.934 326.89L226.577 330.468L224.22 332.854H221.863L220.684 334.047L215.97 336.432L212.434 340.011L203.016 341.204V342.396L205.374 345.975V348.36L208.909 350.746H214.802V356.71L218.338 357.903L220.695 360.288L221.873 362.674V365.059L224.231 374.602L223.052 375.794V378.18L225.409 376.987L226.588 374.602L227.766 375.794H228.945V379.373L231.302 381.758L232.48 384.144H236.016L238.373 381.758L243.088 382.951L247.802 385.337L248.98 387.722V388.915H251.337L253.695 387.722L256.052 390.108H258.409L259.587 393.686L258.409 396.072L264.302 404.411H267.837L270.194 402.025L271.373 404.411V405.604L279.612 409.182L286.684 403.218L283.148 397.254L279.612 392.483H280.791V391.29L279.612 388.904V386.519H278.434L280.791 382.941L283.148 381.748L279.612 378.169L276.077 376.977L274.898 378.169H273.72V375.784L272.541 374.591L271.362 376.977H269.005L266.648 381.748L261.934 380.555L260.755 379.362L258.398 378.169H253.684L252.505 376.977L251.327 374.591H250.148L252.505 368.627L250.148 366.242L252.505 363.856L254.863 360.277L251.327 359.085L248.97 361.47H247.791L245.434 354.314H247.791V353.131L246.613 350.746V348.36Z" fill="#B01736"/>
<path d="M171.243 304.259L168.886 303.066L165.35 300.68V299.488L162.993 297.102H160.636L159.457 295.909L158.279 293.524L154.743 292.331L152.386 288.753L146.651 291.074L140.842 293.524L141.074 297.102L139.422 301.873L140.127 306.644L142.958 309.03H146.493V310.223L147.672 311.416H150.029V313.801H151.207L152.386 314.994L153.565 318.572L151.207 322.151L148.85 323.343L150.029 324.536H151.207V325.729L152.386 326.922L153.565 325.729H154.743L155.922 326.922V329.307L158.279 330.5H160.636L161.815 334.078L164.172 338.85V340.042L167.707 346.006V353.163L173.6 350.778L175.957 343.621H177.136V344.814L178.314 346.006H184.207L185.386 344.814L186.564 342.428L195.982 344.814L200.696 342.428L201.875 343.621H203.054V341.235L201.875 337.657L200.696 332.886L199.518 331.693V328.115H198.339V324.536L195.982 323.343L194.804 322.151V319.765L193.625 317.38V314.994L192.447 313.801L185.375 312.608L181.84 307.837L180.661 306.644L178.304 305.452H175.947L172.411 306.644V304.259H171.243Z" fill="#B01736"/>
</g>
<g opacity="0.3">
<path d="M448.009 374.581L445.652 373.388L443.298 371.006L443.294 371.002L442.116 373.388V374.581L440.937 376.966V379.352L438.58 380.545L437.402 382.93L438.58 385.316V387.701H433.866L431.509 388.894L429.152 391.28H426.795V393.665L427.973 394.858L425.616 397.244L424.438 403.208L425.616 405.593L426.795 409.172V410.364L425.616 411.557L424.438 413.943L423.259 417.521H427.973L430.33 415.136L431.509 416.328H435.045L432.687 418.714L430.33 419.907L433.866 427.064L438.58 435.402L442.116 431.824L443.294 433.017V434.21L445.652 433.017H448.009L451.544 434.21H455.08L456.259 433.017L464.498 429.438L471.569 427.053V428.246L472.748 431.824L473.926 433.017V435.402H475.105L476.284 436.595L475.105 437.788L479.819 444.945L483.355 441.366L489.248 437.788L490.426 440.173H491.605V437.788H501.023L502.201 436.595L505.737 434.21L506.916 431.824L508.094 430.631V428.246L506.916 425.86L509.273 421.089L508.094 419.896V416.318L506.916 412.739V411.547L508.073 409.151L502.201 409.161L501.023 407.968L499.844 411.547L497.487 412.739L497.024 412.271L496.309 411.557L495.13 410.364L497.487 407.979V403.186L498.666 401.994L497.487 399.608H493.951L492.773 400.801V401.994L491.594 400.801H484.523L483.344 396.03L475.105 394.837L469.212 385.305L461.015 380.651L462.12 379.416L448.009 374.581Z" fill="#B01736"/>
<path d="M312.573 243.469L310.216 241.084L307.858 237.505L305.501 238.698L303.365 237.26L301.966 236.313L303.144 233.927L300.787 231.541H298.43L291.359 229.156L289.001 235.12L290.18 238.698L287.823 239.891L292.537 244.662L297.251 248.24L293.716 253.012L287.823 256.59V260.168L290.18 262.554L289.001 263.747L287.823 267.325L285.466 268.518L284.287 270.903L280.752 281.628L276.037 292.352L274.859 293.545L273.68 292.352V293.545L272.502 294.738H271.323L270.145 295.931V301.895L271.323 300.702H272.502L273.68 304.28L274.859 306.666L278.394 307.859H281.93V309.051L284.287 311.437H285.466L286.644 315.015V316.208H291.359L293.716 313.822L294.894 310.244V309.051L297.251 307.859H303.144L305.501 304.28L307.858 301.895L310.216 304.28H313.751V301.895L314.93 298.316L320.823 297.123L324.358 293.545V288.774L326.715 285.196L324.358 279.232L327.894 275.653L332.608 273.268L344.394 261.34V258.954L346.751 254.183L350.287 249.412L338.512 248.219L331.44 241.062L327.904 242.255L325.547 243.448L324.369 242.255H323.19L322.012 243.448H319.655V242.255H314.94L312.573 243.469Z" fill="#B01736"/>
<path d="M303.144 325.719V329.297L300.787 334.068L303.144 336.454H298.429L297.251 337.646H296.072L293.715 336.454L292.537 338.839L291.358 340.032H290.18V337.646L289.001 336.454L286.644 337.646V335.261L287.822 332.875L284.287 330.49L280.751 331.683L279.572 332.875V334.068H278.394V335.261L280.751 343.6V344.793H285.465V345.985L286.644 347.178L293.715 345.985L299.608 347.178L297.251 350.756L293.715 354.335L292.537 356.72L290.18 354.335H289.001L286.644 355.528H284.287L277.215 367.455L273.68 371.034V373.419H272.501V374.612L273.68 375.805V378.191H274.858L276.037 376.998L279.572 378.191L283.108 381.769L280.751 382.962L278.394 386.54H279.572L284.287 387.733L289.001 386.54L290.18 382.962V380.576L291.358 379.383H292.537L293.715 378.191H294.894L299.608 380.576L303.144 382.962L300.787 378.191L298.429 374.612L300.787 372.227H303.144L300.787 371.034L298.429 368.648H299.608L301.965 366.263L300.787 365.07H305.501V366.263L306.679 367.455L310.215 368.648L312.572 369.841V371.034L313.751 372.227L314.929 371.034H318.465L322.001 372.227V369.841L320.822 367.455L323.179 366.263V363.877L319.644 361.492L314.929 357.913L318.465 354.335L319.644 351.949V350.756H320.822L322.001 349.564H324.358L325.536 344.793V338.829L324.358 336.443V335.25L323.179 334.057L320.822 332.865H319.644L318.465 334.057L312.572 330.479L306.679 325.708V324.515H304.322L303.144 325.719ZM400.901 316.176L396.187 317.369L393.83 319.755H392.651L390.294 318.562H384.401L383.223 317.369H382.044L379.687 318.562L378.508 320.948H374.973L371.437 319.755V319.777V320.948L370.258 323.333V328.104L367.901 329.297H363.187V328.104H359.651L357.294 329.297L354.937 334.068L353.759 340.032V341.225H354.937L353.759 342.418H351.401L350.223 344.803V349.574L354.937 351.96V356.731H358.473V357.924L359.651 359.117L360.83 357.924L362.009 359.117L364.366 362.695L365.544 366.273L366.723 367.466L369.08 368.659H370.258L371.437 372.237L373.794 377.008H374.973V375.816L376.151 377.008V378.201H377.33L379.687 379.394L382.044 381.78L383.223 384.165H385.58L386.758 382.972V380.587H387.937L390.294 379.394L389.115 378.201V377.008H390.294L391.473 375.816L390.294 374.623L391.473 373.43L393.83 372.237V371.044L395.008 369.852H396.187V367.466L397.365 366.273H398.544V362.695L400.901 363.888L404.437 362.695L403.258 354.356V353.131H399.722L398.544 351.939L399.722 350.746L402.08 349.553V342.396L409.151 337.625L410.329 338.818L411.508 341.204L410.329 342.396V344.782H412.687L417.401 347.167L420.937 349.553L422.115 348.36H424.472L432.712 350.746L442.117 347.172L442.13 347.167L439.772 344.782H436.237L433.88 342.396L430.344 340.011L427.987 338.818V332.854H426.808L424.451 330.468L425.63 329.276V328.083L424.451 326.89H423.273L422.094 322.119L419.737 318.541L418.558 317.348H417.38L416.201 316.155L412.666 314.962H409.13L407.951 313.769L406.773 311.384H404.416L403.237 312.577L400.901 316.176Z" fill="#B01736"/>
<path d="M442.117 347.167L432.699 350.745L424.459 348.359H422.102L420.924 349.552L417.388 347.167L412.674 344.781H410.317V342.395L411.495 341.203L410.317 338.817L409.138 337.624L402.067 342.395V349.552L399.71 350.745L398.531 351.938L399.71 353.13H403.245V354.323L404.424 362.662L400.888 363.855L398.531 362.662V366.24H397.352L396.174 367.433V369.819H394.995L393.817 371.012V372.204L391.46 373.397L390.281 374.59L391.46 375.783L390.281 376.976H389.103V378.168L390.281 379.361L387.924 380.554H386.745V382.939L389.103 386.518L387.924 392.482V394.867H389.103L385.567 399.639L386.745 402.024L389.103 404.41H390.281L391.46 403.217H392.638V404.41H393.817V403.185L394.995 401.992V410.331L397.352 409.138V407.945L399.71 409.138L403.245 412.717H405.602V413.909L404.424 415.102L402.067 413.909L399.71 417.488L400.888 419.873L403.245 418.681L409.138 422.259H410.317L415.031 419.873H418.567L420.924 417.488H423.281L424.459 413.909L425.638 411.524L426.816 410.331V409.138L425.638 405.56L424.459 403.174L425.638 397.21L427.995 394.825L426.816 393.632V391.246H429.174L431.531 388.861L433.888 387.668H438.602V385.282L437.424 382.897L438.602 380.511L440.959 379.318V376.933L442.138 374.547V373.355L443.298 371.006L443.316 370.969L442.138 369.776L440.959 367.391L442.138 366.198V363.812L440.959 361.427V356.656L439.781 355.463V354.27H440.959V350.692H442.138L442.117 347.172L442.117 347.167Z" fill="#B01736"/>
<path d="M353.777 253V249.422L352.599 248.229V247.036L350.242 248.229V249.422L346.706 254.193L344.349 258.964V261.35L332.563 273.278L327.849 275.663L324.313 279.241L326.67 285.205L324.313 288.784V293.555L320.778 297.133L314.885 298.326L313.706 301.904V304.29H310.171L307.813 301.904L305.456 304.29L303.099 307.868H297.206L294.849 309.061V310.254L293.671 313.832L291.314 316.218V319.796H292.492L293.671 320.989L298.385 323.375L301.921 325.76H303.099L304.278 324.567H306.635V325.76L312.528 330.531L318.421 334.11L319.599 332.917H320.778L323.135 334.11L324.313 335.303V336.495L325.492 338.881L325.507 338.871V338.828L329.042 336.443L332.578 335.25L334.935 336.443L337.292 338.828H339.649L343.185 342.407L346.721 340.021H352.613L352.587 340.074H352.599L351.42 342.459H353.777L354.956 341.266H353.777V340.074L354.956 334.11L357.313 329.339L359.67 328.146H363.206V329.339H367.92L370.277 328.146V323.375L371.456 320.989V319.796L371.437 319.777L370.277 318.603V305.493L363.206 300.722L365.563 291.18V288.794L363.206 287.602V284.023L364.384 281.638L365.563 276.867L367.92 272.095L365.563 268.517L364.384 266.132L360.849 257.771L353.777 253Z" fill="#B01736"/>
<path d="M522.2 130.239V125.468L523.378 121.89V119.504L522.2 118.311L521.021 121.89L519.843 127.854L516.307 131.432L510.414 132.625L509.236 133.818H508.057L506.879 136.203L503.343 139.782V140.974L504.521 142.167V143.36L503.343 145.746L504.521 150.517V155.288L498.629 161.252L497.45 164.83L495.093 169.601V174.372L493.914 176.758L492.736 180.336H496.272L498.629 182.722L500.986 181.529H503.343L510.414 186.3L513.95 193.457V194.65L512.771 195.843L513.95 199.421V202.999H511.593L508.057 205.385L506.879 208.963L511.593 213.734L515.128 216.12H512.771L510.414 214.927L508.057 216.12H506.879V212.542L505.7 210.156V208.963L506.879 206.578V204.192L509.236 201.807H508.057V200.614L509.236 199.421V194.65L508.057 192.264V187.493H495.103L492.746 191.071L491.568 193.457V197.035L489.211 205.374L486.854 207.76L483.318 208.953L482.139 212.531L479.782 214.917L476.247 216.109L472.711 218.495L470.354 217.302L469.175 218.495L466.818 222.073H463.282V220.88L462.104 219.688L457.39 218.495L453.854 216.109L451.497 214.917L450.318 212.531L449.14 208.953V205.374L453.854 207.76L459.747 210.145L458.568 211.338H456.211V212.531L459.747 214.917H464.461V212.531L465.639 210.145H466.818L469.175 208.953L470.354 207.76H471.532V205.374L480.961 200.603L482.139 197.025V194.639L485.675 192.254L488.032 188.675L485.675 183.904L484.496 176.747L488.032 170.783L490.389 164.82L492.746 157.663L495.103 155.277L498.639 148.12L497.461 142.157V136.193L502.175 131.421L509.246 119.504V115.926L506.889 112.347L500.996 109.962L496.282 107.576H495.103L496.282 106.384H495.103V105.191L489.211 112.347L483.318 120.686L473.9 127.843L466.829 131.421H468.007L466.829 133.807H465.65L464.471 136.193H466.829L468.007 137.385L465.65 140.964L463.293 145.735V148.12L462.114 150.506L460.936 149.313H459.757L457.4 151.699L456.222 155.277V156.47L457.4 155.277H458.579L460.936 160.048H462.114V162.434L460.936 163.627V169.591L463.293 171.976V173.169L456.222 181.508H453.864L455.043 180.315V179.122L452.686 176.737L451.507 168.398L450.139 168.536L449.939 167.738L449.413 166.939L450.76 166.896L450.276 165.597L449.15 164.83L449.813 162.849L446.804 158.866L442.089 155.288L437.375 160.059L439.732 163.637L440.911 164.83V167.216L437.375 171.987H436.197L435.018 176.758L437.375 180.336L438.554 183.915L433.839 186.3L427.947 189.879L426.768 191.071L425.589 193.457H420.875L416.161 194.65H412.625L410.268 197.035V198.228L406.733 199.421L403.197 202.999L400.84 201.807H397.455C397.915 203.204 398.022 203.988 398.483 205.385V207.771L399.661 210.156V211.349L397.304 214.927L396.126 218.506H393.768L392.59 220.891L393.768 223.277L397.304 224.469L396.126 226.855L397.304 229.241H400.84L402.018 230.434L404.375 229.241H406.733V230.434L407.911 231.626L409.09 230.434H410.268L413.804 231.626L417.34 234.012L418.518 235.205L420.875 236.397L419.697 237.59L417.34 238.783L419.697 242.361L423.232 245.94L427.947 243.554L431.482 244.747H432.661L433.839 243.554H436.197V244.747L437.375 245.94H438.554L440.911 248.325L439.732 249.518L438.554 251.904V255.482L439.732 257.868L442.089 260.253V268.592L447.982 269.785L453.875 268.592L456.232 272.17L457.411 275.749L459.768 278.134L462.125 279.327L468.018 280.52L472.732 284.098L478.625 287.677L479.803 292.448L482.16 294.833H490.4L495.114 297.219L502.185 294.833L506.9 292.448H508.078V296.026L511.614 299.605H516.328L521.042 306.761H525.757L528.114 309.147L530.471 313.918L536.364 309.147L539.899 304.376L541.078 301.99V300.797L542.256 299.605L543.435 297.219L541.078 296.026L539.899 294.833V292.448L541.078 291.255H543.435L548.149 284.098L549.328 276.942L548.149 273.363L545.792 274.556L543.435 273.363L542.256 270.978H539.899L538.721 267.399H539.899L541.078 265.014V256.675L537.542 255.482L536.364 251.904V243.565L537.542 238.794L536.364 232.83L535.185 229.251L534.006 228.059V226.866L535.974 225.417L537.058 223.522L535.185 222.105V217.334L539.899 214.949L542.256 208.985L544.614 194.682L542.256 192.296V191.103L541.078 189.911L538.721 192.296H535.185L532.828 189.911L529.292 187.525L528.114 183.947L526.935 181.561V177.983L529.292 176.79V175.597H530.471L535.185 172.019L537.542 169.633L539.899 170.826H542.256L543.435 164.862V158.898L538.721 154.127V149.356H542.256L544.614 146.97V143.392L539.899 138.621L537.542 133.85H534.006L530.471 136.235H532.828L534.006 138.621V141.006L529.292 139.813L528.114 136.235L523.399 137.428L522.221 142.199L523.399 146.97L525.757 150.549H528.114L530.471 152.934L529.292 158.898L526.935 154.127L519.864 150.549L513.971 145.778L515.15 144.585L517.507 139.813L516.328 137.428L519.864 133.85L522.2 130.239Z" fill="#B01736"/>
<path d="M332.563 335.303L329.028 336.495L325.507 338.871V344.792L324.328 349.563H321.971L320.792 350.756H319.614V351.949L318.435 354.334L314.9 357.913L319.614 361.491L323.149 363.877V366.262L320.792 367.455L321.971 369.841V372.226L333.757 374.612L336.114 375.805L337.292 376.997L339.649 374.612H342.006L345.542 375.805L346.721 376.997L365.557 379.383L367.914 376.997H369.092L371.449 378.19L372.628 376.997H373.807L371.449 372.226L370.271 368.648H369.092L366.735 367.455L365.557 366.262L364.378 362.684L362.021 359.106L360.842 357.913L359.664 359.106L358.485 357.913V356.72H354.95V351.949L350.235 349.563V344.792L351.414 342.407L352.587 340.074H346.706L343.17 342.459L339.635 338.881H337.277L334.92 336.495L332.563 335.303Z" fill="#B01736"/>
<path d="M445.652 373.388L448.009 374.581L462.12 379.416L461.015 380.651L469.212 385.305L475.105 394.837L483.344 396.03L484.523 400.801H491.594L492.773 401.994V400.801L493.951 399.608H497.487L498.666 401.994L497.487 403.186V407.979L495.13 410.364L496.309 411.557L497.024 412.271L497.487 412.739L499.844 411.547L501.023 407.968L502.201 409.161L508.073 409.151H510.43L512.787 407.958L513.966 409.151H515.144L518.68 405.572H519.859L521.037 406.765L522.216 405.572H530.455L531.644 404.39L536.359 406.776L539.894 404.39L544.584 404.518L545.763 400.939L548.12 396.168H550.382L551.561 394.975V392.59H552.739V391.397L550.382 385.433L545.668 380.662V377.084L546.847 373.505L550.382 371.12L552.739 369.927L550.382 366.349L546.847 365.156L545.668 362.77V359.192L543.311 356.806H542.132L540.954 355.613V354.421L538.597 353.228L535.061 352.035L530.347 350.842L525.485 351.961L520.929 349.66V334.165L530.347 331.779L538.586 327.008L536.229 324.622L531.515 322.237L530.471 313.918L528.114 309.147L525.757 306.761H521.042L516.328 299.605H511.614L508.078 296.026V292.448H506.9L502.185 294.833L495.114 297.219L490.4 294.833H482.16L479.803 292.448L478.625 287.677L472.732 284.098L468.018 280.52L462.125 279.327L459.768 278.134L457.411 275.749L456.232 272.17L453.875 268.592L447.982 269.785L442.089 268.592V260.253L439.732 257.868L438.554 255.482V251.904L439.732 249.518L440.911 248.325L438.554 245.94H437.375L436.197 244.747V243.554H433.839L432.661 244.747H431.482L427.947 243.554L423.232 245.94L419.697 242.361L417.34 238.783L419.697 237.59L420.875 236.397L418.518 235.205L417.34 234.012L413.804 231.626L410.268 230.434H409.09L407.911 231.626L406.733 230.434V229.241H404.375L402.018 230.434L400.84 229.241H397.304L396.126 226.855L397.304 224.469L393.768 223.277L392.59 220.891L393.768 218.506H396.126L397.304 214.927L399.661 211.349V210.156L398.483 207.771V205.385C398.022 203.988 397.915 203.204 397.455 201.807L395.055 202.98L391.519 204.173V205.365L384.448 208.944L383.27 206.558C383.27 206.558 383.479 205.781 383.27 205.365C382.855 204.541 380.912 205.365 380.912 205.365L378.555 206.558H377.377L376.198 207.751L373.841 208.944L372.662 210.137L371.484 217.293L362.055 226.836L357.341 236.378V237.571L358.52 238.763L357.341 241.149H354.984L353.806 244.727L352.599 247.036V248.229L353.777 249.422V253L360.849 257.771L364.384 266.132L365.563 268.517L367.92 272.095L365.563 276.867L364.384 281.638L363.206 284.023V287.602L365.563 288.794V291.18L363.206 300.722L370.277 305.493V318.603L371.437 319.777V319.755L374.973 320.948H378.508L379.687 318.562L382.044 317.369H383.223L384.401 318.562H390.294L392.651 319.755H393.83L396.187 317.369L400.901 316.176L403.237 312.577L404.416 311.384H406.773L407.951 313.769L409.13 314.962H412.666L416.201 316.155L417.38 317.348H418.558L419.737 318.541L422.094 322.119L423.273 326.89H424.451L425.63 328.083V329.276L424.451 330.468L426.808 332.854H427.987V338.818L430.344 340.011L433.88 342.396L436.237 344.782H439.772L442.13 347.167L442.117 347.172L442.138 350.692H440.959V354.27H439.781V355.463L440.959 356.656V361.427L442.138 363.812V366.198L440.959 367.391L442.138 369.776L443.316 370.969L443.298 371.006L445.652 373.388Z" fill="#B01736"/>
<path d="M506.889 99.248H504.532L498.639 101.634V105.212L503.353 106.405L506.889 105.212V99.248Z" fill="#B01736"/>
<path d="M523.378 114.744L518.664 113.551L519.843 117.129H521.021L522.2 114.744H523.378Z" fill="#B01736"/>
<path d="M535.164 132.614L536.343 131.421V129.036L535.164 127.843L529.271 130.229L533.985 132.614H535.164Z" fill="#B01736"/>
</g>
<g opacity="0.2">
<path d="M541.051 125.47L542.23 127.855H545.766V120.698L541.051 125.47ZM716.531 73.0188L717.709 74.2116V75.4044L720.066 76.5971L718.888 73.0188L717.709 71.826L716.531 73.0188ZM642.334 78.9827L639.977 77.7899L641.155 80.1755L643.512 81.3683V78.9827H642.334Z" fill="#B01736"/>
<path d="M483.327 491.409L489.22 502.145L491.577 509.301L492.755 510.494H493.934L496.291 511.687L497.47 512.88L502.184 511.687L505.72 510.494V511.687L504.541 512.88L510.434 521.218H515.148L517.505 520.026L518.684 517.64L524.577 518.833H528.112L529.291 517.64H530.469L531.648 518.833L534.005 515.255L535.126 512.859L539.84 511.666H544.554V509.28L545.733 506.895L551.625 508.088L556.34 505.702H561.054V504.509L562.232 503.316H563.411V504.509H564.59V505.702H565.768L568.125 504.509V506.895L569.304 509.28H574.018L579.911 510.473L581.089 514.051L582.268 518.823L591.696 521.208H592.875L594.053 520.015L599.946 522.401H602.303L605.839 523.594L608.196 525.979L616.436 521.208L618.793 514.051H617.614L616.436 511.666V508.088L615.257 506.895L617.614 500.931L621.15 496.16H622.328L625.864 492.581L627.016 490.249L628.175 491.421L630.532 492.614L638.771 497.385L645.843 500.963H647.021L648.2 502.156L652.914 503.349L656.45 504.542V511.699L663.521 520.037L674.118 522.423L683.536 520.037L685.893 518.845H687.071L696.5 521.23H700.035L703.571 523.616L705.928 526.001H708.285L710.642 527.194L717.667 534.393L734.146 536.779H735.324L736.503 535.586L737.681 536.779H740.039L742.396 535.586L745.931 533.2L762.41 528.429L764.767 523.658L773.007 516.502L778.9 517.694L783.614 520.08H788.328L795.399 518.887L801.292 522.465L809.532 523.658L811.889 520.08L815.424 516.502L818.96 514.116L821.317 511.73V509.345H820.139V508.152L822.496 498.62L824.853 487.896L828.389 483.125L830.746 478.354L828.389 475.968V473.582L827.21 472.39L823.674 473.582L822.496 470.004L823.674 467.619L827.21 464.04V462.847L828.389 461.655L833.103 459.269L838.956 455.062L836.599 451.483L833.063 447.905L834.242 445.519V441.941L836.599 439.555L833.063 437.17H831.885L830.706 435.977L833.063 430.013L830.706 424.049L828.349 425.242H827.171L825.992 421.664L823.635 418.085L820.099 419.278L817.742 420.471V421.664H816.564L814.206 419.278V417.058H815.553L816.697 415.666L811.859 413.231L810.756 412.085L810.671 409.736H809.492V405.502L805.996 400.822L804.817 396.051H803.639L802.46 397.244L800.21 392.579V385.423L799.032 383.037V381.844L797.853 380.651L796.675 378.266V374.688L795.496 372.302V369.916L794.318 367.531H782.532V365.145L781.354 363.952V361.567L778.996 360.374L776.639 357.989L773.104 356.796H768.389L764.854 360.374H762.497L760.139 361.567L758.961 365.145L757.782 367.531H755.425L750.711 374.688L744.818 380.651L745.997 377.073L743.64 375.88L742.461 373.495V372.302L738.925 375.88H731.854V377.073H730.675L727.14 375.88L725.961 378.266L720.068 379.459H717.711L716.533 374.688V368.724L718.89 366.338V362.76L721.247 355.603L723.604 349.639L720.068 346.061L718.89 340.097L721.247 337.711L722.426 335.326L720.068 331.747L717.711 329.362L717.68 323.174L716.533 315.059L712.997 311.48L709.461 310.288L711.818 306.709L712.997 305.516L711.818 301.938L710.64 299.552H702.401L697.686 298.36L695.329 295.974H692.972L690.623 291.235L692.98 287.657V284.078L695.337 280.5L696.516 279.307L697.695 276.922L697.679 276.905L692.98 272.15L691.802 269.765V269.75L691.793 269.733V263.784L690.623 261.415V261.4L690.615 261.383V253.068L688.266 250.691L688.278 250.679L688.258 250.659L690.615 248.273L694.151 245.888L695.329 232.778V216.109L692.98 212.543L692.973 212.512L692.972 212.511L691.793 207.74V206.547L692.972 204.161H694.151V202.969L696.508 204.161H698.844L701.201 201.776L704.737 200.583L708.272 201.776H710.629L712.987 198.197V193.426L715.344 192.234L716.522 191.041V188.655L717.701 185.077L727.129 177.92V176.727L725.951 173.149L723.594 168.378V163.607L722.415 158.836L720.058 156.45L717.701 155.257L716.522 154.064V150.486L715.344 149.293L714.165 144.522L715.344 139.751L714.165 138.558V134.98L712.995 134.98L711.816 133.787L714.173 131.402L715.352 127.823L716.531 126.63V124.245L717.709 123.052L715.352 124.245L714.173 125.438L711.816 124.245L708.281 126.63V130.209H710.638L714.173 129.016V130.209L712.995 131.402H711.816L709.459 134.98L707.102 136.173L705.923 134.98L704.745 137.365L702.388 138.558V142.137L700.031 140.944L698.852 139.751V140.944H690.623L689.445 144.522L685.909 148.101H684.73L685.909 145.715L688.266 143.329V140.944L689.445 138.558L692.98 137.365L694.159 133.787L692.98 132.594L691.213 131.7L689.445 131.402H690.623L691.213 131.7L696.516 132.594L701.23 127.823H702.409L704.766 123.052L709.48 118.281L710.659 114.702L717.73 109.931V108.739L718.909 107.546L721.266 103.967L724.801 100.389L725.98 94.425L723.623 93.2323L722.444 90.8467V92.0395L721.266 93.2323V89.6539H722.444L724.801 90.8467V93.2323L725.98 90.8467V84.8828H723.623V81.3044L721.266 78.9189L721.245 81.3683V82.5611L720.066 80.1755V77.7899L718.888 76.5971H716.531L711.816 69.4405L710.638 70.6332L709.459 69.4405H708.281V70.6332H702.388L700.031 71.826L698.852 70.6332H697.695L696.516 71.826L694.159 76.5971H690.623L692.98 70.6332V65.8621H685.909L687.088 64.6693V63.4765L683.552 64.6693L681.195 63.4765L683.552 62.2838L687.088 58.7054H688.266L689.445 57.5126L687.088 55.1271L683.552 53.9343L682.373 52.7414V51.5486H680.016L677.659 52.7414H676.48L669.409 61.0803L664.695 69.4191L665.873 70.6119V74.1903L658.802 76.5758L657.624 75.383H655.266V76.5758L657.624 80.1543L658.802 82.5399H656.445L655.266 80.1543L652.909 81.3471H651.731V82.5399L650.552 83.7327H649.374V84.9254H645.838L644.659 86.1182H643.481V84.9254L642.302 83.7327L639.945 84.9254L638.767 86.1182L639.945 83.7327L641.124 82.5399L634.052 80.1543L626.981 81.3471L625.802 82.5399L628.16 83.7327H630.517V84.9254L628.16 86.1182H625.802L621.088 87.311L617.552 88.5038H610.481L603.41 92.0821L601.053 94.4677H593.981L595.16 95.6605L597.517 96.8533L596.338 98.046L593.981 99.2388L592.803 101.624V104.01L590.446 101.624L586.91 100.432V101.624L592.803 107.588L591.624 108.781L589.267 106.396L588.088 107.588H585.731L591.624 113.552L590.446 114.745V121.902H589.267L586.91 123.095H585.731L589.267 119.516V118.323L584.553 117.131L581.017 118.323H575.124L560.982 115.938H557.446L555.089 114.745V115.938L553.91 118.323L552.732 119.516L553.91 120.709V121.902H552.732V124.287L553.91 125.48L552.732 129.059L551.553 131.444V133.83L550.375 135.022L553.91 138.601L557.446 140.986V148.143L560.982 150.529L562.16 155.3L557.446 162.457L558.624 164.842L557.446 175.567L552.732 177.952L556.267 186.291L557.446 191.062H556.267V189.869L553.91 188.677L552.732 187.484V182.713L551.553 180.327L550.375 179.134L555.089 167.217L553.91 164.831L551.553 163.639L552.732 162.446V160.06L556.267 157.675L559.803 152.904L556.267 150.518L550.375 149.325L548.017 142.169L544.482 137.397L540.946 133.819H537.41L539.767 138.59L544.482 143.361V146.94L542.125 149.325H538.589V154.096L543.303 158.868V164.831L542.125 170.795H539.767L537.41 169.603L535.053 171.988L530.339 175.567H529.16V176.759L526.803 177.952V181.531L527.982 183.916L529.16 187.494L532.696 189.88L535.053 192.266H538.589L540.946 189.88L542.125 191.073V192.266L544.482 194.651L542.125 208.954L539.767 214.918L535.053 217.303V222.075L536.926 223.491L535.842 225.387L533.875 226.835V228.028L535.053 229.221L536.232 232.799L537.41 238.763L536.232 243.534V251.873L537.41 255.451L540.946 256.644V264.994L539.767 267.379H538.589L539.767 270.958H542.125L543.303 273.343L545.66 274.536L548.017 273.343L549.196 276.922L548.017 284.078L543.303 291.235H540.946L539.767 292.428V294.813L540.946 296.006L543.303 297.199L542.125 299.585L540.946 300.777V301.97L539.767 304.356L536.232 309.127L530.339 313.898L531.518 322.237L536.232 324.622L538.589 327.008L530.35 331.779L520.932 334.165V349.66L525.488 351.961L530.35 350.842L535.064 352.035L538.599 353.228L540.957 354.421V355.614L542.135 356.806H543.314L545.671 359.192V362.77L546.849 365.156L550.385 366.349L552.742 369.927L550.385 371.12L546.849 373.505L545.671 377.084V380.662L550.385 385.433L552.742 391.397V392.59H551.564V394.976L550.385 396.168H548.123L545.766 400.94L544.587 404.518L539.897 404.39L536.361 406.776L531.647 404.39L530.458 405.573H522.219L521.04 406.765L519.861 405.573H518.683L515.147 409.151H513.969L512.79 407.958L510.433 409.151L508.319 409.033L506.897 411.536V412.729L508.076 416.308V419.886L509.254 421.079L506.897 425.85L508.076 428.236V430.621L506.897 431.814L505.719 434.199L502.18 436.542L501.001 437.735L496.298 437.756H491.583V440.142H490.405L489.226 437.756L483.333 441.335L479.798 444.913L475.083 437.756L476.262 436.563L475.083 435.371H473.905V432.985L472.726 431.792L471.548 428.214V427.021L464.476 429.407L456.237 432.985L455.058 434.178H451.523L447.987 432.985H445.63L443.273 434.178V432.985L442.094 431.792L438.559 435.371L446.798 478.279L451.512 477.086V474.701H453.869V473.508L455.048 472.315L457.405 478.279L459.762 483.05L464.476 484.243L466.834 485.436H471.548V484.243H475.083L476.262 483.05L480.976 486.629L483.327 491.409Z" fill="#B01736"/>
</g>
</svg>
