<svg width="111" height="110" viewBox="0 0 111 110" fill="none" xmlns="http://www.w3.org/2000/svg">
<circle opacity="0.05" cx="55.9984" cy="55" r="55" fill="black"/>
<path d="M36.0325 45.3129C36.2786 43.3072 37.982 41.8 40.0028 41.8H73.0007C75.0679 41.8 76.7945 43.375 76.9839 45.4335L79.5966 73.8281C79.8123 76.172 77.9673 78.1946 75.6135 78.1946H36.5192C34.1168 78.1946 32.2564 76.0919 32.5489 73.7075L36.0325 45.3129Z" stroke="#B01736" stroke-width="2"/>
<path d="M55.9984 50.6367V69.3566" stroke="#B01736" stroke-width="2" stroke-linecap="round"/>
<path d="M46.1508 59.9971H65.8431" stroke="#B01736" stroke-width="2" stroke-linecap="round"/>
<path d="M65.5969 41.7996V35.5996C65.5969 33.3905 63.806 31.5996 61.5969 31.5996H50.3969C48.1877 31.5996 46.3969 33.3905 46.3969 35.5996V41.7996" stroke="#B01736" stroke-width="2"/>
</svg>
