<svg width="111" height="110" viewBox="0 0 111 110" fill="none" xmlns="http://www.w3.org/2000/svg">
<circle opacity="0.05" cx="55.9984" cy="55" r="55" fill="black"/>
<rect x="58.9359" y="58.8945" width="9" height="9" rx="1" stroke="#B01736" stroke-width="2"/>
<path d="M40.1469 52.2354V66.1177V77.0001C40.1469 77.5524 40.5946 78.0001 41.1469 78.0001H70.9313C71.4836 78.0001 71.9313 77.5524 71.9313 77.0001V52.2354M54.1469 78.0001V59.8952C54.1469 59.3429 53.6991 58.8952 53.1469 58.8952H46.1469C45.5946 58.8952 45.1469 59.3429 45.1469 59.8952V78.0001" stroke="#B01736" stroke-width="2"/>
<path d="M34.446 52H77.5508C78.9134 52 79.5185 50.3298 78.4582 49.4956L56.6178 32.3124C56.0828 31.8915 55.3177 31.8964 54.7884 32.3241L33.524 49.5073C32.4823 50.3491 33.0929 52 34.446 52Z" stroke="#B01736" stroke-width="2"/>
</svg>
